<?xml version='1.0' encoding='utf-8'?>
<svg xmlns="http://www.w3.org/2000/svg" style="background-color:#ffffff" width="3000" height="1240.0" viewBox="0 265 3000 1240" role="img"><title>21 · CDL / Automatic_Cycle/WH_CDL_End</title><rect x="0" y="0" width="3000" height="1505" fill="#ffffff" stroke="#ffffff" stroke-width="2" /><polyline points="105,265 105,1430" fill="none" stroke="#193b2d" stroke-width="2.5" /><polyline points="2900,265 2900,1430" fill="none" stroke="#193b2d" stroke-width="2.5" /><text x="130" y="289.0" fill="#52685c" font-size="24" font-family="Liberation Mono, monospace">ADDED · A disappearing legacy running bit without publication is an aborted observation.</text><rect x="20" y="413" width="52" height="34" fill="#eaf1ec" stroke="#b42332" stroke-width="2" /><text x="29.8203125" y="436.0" fill="#b42332" font-size="17" font-family="Liberation Sans, Arial, sans-serif">000</text><polyline points="105,430 145,430" fill="none" stroke="#193b2d" stroke-width="2.5" /><polyline points="145,430 255.0,430" fill="none" stroke="#193b2d" stroke-width="2.5" /><polyline points="335.0,430 445,430" fill="none" stroke="#193b2d" stroke-width="2.5" /><polyline points="255.0,408 255.0,452" fill="none" stroke="#193b2d" stroke-width="2.5" /><polyline points="335.0,408 335.0,452" fill="none" stroke="#193b2d" stroke-width="2.5" /><text x="285.796875" y="439.0" fill="#193b2d" font-size="24" font-family="Liberation Mono, monospace">=</text><text x="206.5625" y="389.0" fill="#806000" font-size="24" font-family="Liberation Mono, monospace">WH_CDL_State</text><text x="278.59375" y="488.0" fill="#806000" font-size="24" font-family="Liberation Mono, monospace">20</text><text x="282.203125" y="524.0" fill="#52685c" font-size="18" font-family="Liberation Mono, monospace">EQ</text><polyline points="445,430 555.0,430" fill="none" stroke="#193b2d" stroke-width="2.5" /><polyline points="635.0,430 745,430" fill="none" stroke="#193b2d" stroke-width="2.5" /><polyline points="555.0,408 555.0,452" fill="none" stroke="#193b2d" stroke-width="2.5" /><polyline points="635.0,408 635.0,452" fill="none" stroke="#193b2d" stroke-width="2.5" /><polyline points="581.0,449 609.0,411" fill="none" stroke="#193b2d" stroke-width="2.5" /><text x="484.953125" y="359.0" fill="#1764a6" font-size="24" font-family="Liberation Mono, monospace">Transfer_Timer_</text><text x="484.953125" y="389.0" fill="#1764a6" font-size="24" font-family="Liberation Mono, monospace">Running</text><text x="576.8046875" y="490.0" fill="#52685c" font-size="18" font-family="Liberation Mono, monospace">XIO</text><polyline points="745,430 2560,430" fill="none" stroke="#193b2d" stroke-width="2.5" /><polyline points="2560,430 2660.0,430" fill="none" stroke="#193b2d" stroke-width="2.5" /><polyline points="2760.0,430 2860,430" fill="none" stroke="#193b2d" stroke-width="2.5" /><polyline points="2677.5,405 2666.0,413 2660.0,424 2660.0,436 2666.0,447 2677.5,455" fill="none" stroke="#236940" stroke-width="2.5" /><polyline points="2742.5,405 2754.0,413 2760.0,424 2760.0,436 2754.0,447 2742.5,455" fill="none" stroke="#236940" stroke-width="2.5" /><text x="2686.390625" y="439.0" fill="#236940" font-size="24" font-family="Liberation Mono, monospace">MOV</text><text x="2700.796875" y="389.0" fill="#b42332" font-size="24" font-family="Liberation Mono, monospace">5</text><text x="2621.5625" y="488.0" fill="#b42332" font-size="24" font-family="Liberation Mono, monospace">WH_CDL_Fault</text><text x="2686.40625" y="524.0" fill="#52685c" font-size="18" font-family="Liberation Mono, monospace">MOVE</text><polyline points="2860,430 2900,430" fill="none" stroke="#193b2d" stroke-width="2.5" /><text x="130" y="614.0" fill="#52685c" font-size="24" font-family="Liberation Mono, monospace">ADDED · Timer regression supersedes abort fault, preserving original later-write priority.</text><rect x="20" y="703" width="52" height="34" fill="#eaf1ec" stroke="#b42332" stroke-width="2" /><text x="29.8203125" y="726.0" fill="#b42332" font-size="17" font-family="Liberation Sans, Arial, sans-serif">001</text><polyline points="105,720 145,720" fill="none" stroke="#193b2d" stroke-width="2.5" /><polyline points="145,720 255.0,720" fill="none" stroke="#193b2d" stroke-width="2.5" /><polyline points="335.0,720 445,720" fill="none" stroke="#193b2d" stroke-width="2.5" /><polyline points="255.0,698 255.0,742" fill="none" stroke="#193b2d" stroke-width="2.5" /><polyline points="335.0,698 335.0,742" fill="none" stroke="#193b2d" stroke-width="2.5" /><text x="285.796875" y="729.0" fill="#193b2d" font-size="24" font-family="Liberation Mono, monospace">=</text><text x="206.5625" y="679.0" fill="#806000" font-size="24" font-family="Liberation Mono, monospace">WH_CDL_State</text><text x="278.59375" y="778.0" fill="#806000" font-size="24" font-family="Liberation Mono, monospace">20</text><text x="282.203125" y="814.0" fill="#52685c" font-size="18" font-family="Liberation Mono, monospace">EQ</text><polyline points="445,720 555.0,720" fill="none" stroke="#193b2d" stroke-width="2.5" /><polyline points="635.0,720 745,720" fill="none" stroke="#193b2d" stroke-width="2.5" /><polyline points="555.0,698 555.0,742" fill="none" stroke="#193b2d" stroke-width="2.5" /><polyline points="635.0,698 635.0,742" fill="none" stroke="#193b2d" stroke-width="2.5" /><text x="585.796875" y="729.0" fill="#193b2d" font-size="24" font-family="Liberation Mono, monospace">&lt;</text><text x="463.34375" y="679.0" fill="#1764a6" font-size="24" font-family="Liberation Mono, monospace">Transfer_Timer.ACC</text><text x="463.34375" y="778.0" fill="#193b2d" font-size="24" font-family="Liberation Mono, monospace">WH_CDL_LastTimerMs</text><text x="582.203125" y="814.0" fill="#52685c" font-size="18" font-family="Liberation Mono, monospace">LT</text><polyline points="745,720 2560,720" fill="none" stroke="#193b2d" stroke-width="2.5" /><polyline points="2560,720 2660.0,720" fill="none" stroke="#193b2d" stroke-width="2.5" /><polyline points="2760.0,720 2860,720" fill="none" stroke="#193b2d" stroke-width="2.5" /><polyline points="2677.5,695 2666.0,703 2660.0,714 2660.0,726 2666.0,737 2677.5,745" fill="none" stroke="#236940" stroke-width="2.5" /><polyline points="2742.5,695 2754.0,703 2760.0,714 2760.0,726 2754.0,737 2742.5,745" fill="none" stroke="#236940" stroke-width="2.5" /><text x="2686.390625" y="729.0" fill="#236940" font-size="24" font-family="Liberation Mono, monospace">MOV</text><text x="2700.796875" y="679.0" fill="#b42332" font-size="24" font-family="Liberation Mono, monospace">6</text><text x="2621.5625" y="778.0" fill="#b42332" font-size="24" font-family="Liberation Mono, monospace">WH_CDL_Fault</text><text x="2686.40625" y="814.0" fill="#52685c" font-size="18" font-family="Liberation Mono, monospace">MOVE</text><polyline points="2860,720 2900,720" fill="none" stroke="#193b2d" stroke-width="2.5" /><text x="130" y="904.0" fill="#52685c" font-size="24" font-family="Liberation Mono, monospace">ADDED · Track the legacy timer only while observing state 20.</text><rect x="20" y="993" width="52" height="34" fill="#eaf1ec" stroke="#286951" stroke-width="2" /><text x="29.8203125" y="1016.0" fill="#286951" font-size="17" font-family="Liberation Sans, Arial, sans-serif">002</text><polyline points="105,1010 145,1010" fill="none" stroke="#193b2d" stroke-width="2.5" /><polyline points="145,1010 255.0,1010" fill="none" stroke="#193b2d" stroke-width="2.5" /><polyline points="335.0,1010 445,1010" fill="none" stroke="#193b2d" stroke-width="2.5" /><polyline points="255.0,988 255.0,1032" fill="none" stroke="#193b2d" stroke-width="2.5" /><polyline points="335.0,988 335.0,1032" fill="none" stroke="#193b2d" stroke-width="2.5" /><text x="285.796875" y="1019.0" fill="#193b2d" font-size="24" font-family="Liberation Mono, monospace">=</text><text x="206.5625" y="969.0" fill="#806000" font-size="24" font-family="Liberation Mono, monospace">WH_CDL_State</text><text x="278.59375" y="1068.0" fill="#806000" font-size="24" font-family="Liberation Mono, monospace">20</text><text x="282.203125" y="1104.0" fill="#52685c" font-size="18" font-family="Liberation Mono, monospace">EQ</text><polyline points="445,1010 2560,1010" fill="none" stroke="#193b2d" stroke-width="2.5" /><polyline points="2560,1010 2660.0,1010" fill="none" stroke="#193b2d" stroke-width="2.5" /><polyline points="2760.0,1010 2860,1010" fill="none" stroke="#193b2d" stroke-width="2.5" /><polyline points="2677.5,985 2666.0,993 2660.0,1004 2660.0,1016 2666.0,1027 2677.5,1035" fill="none" stroke="#236940" stroke-width="2.5" /><polyline points="2742.5,985 2754.0,993 2760.0,1004 2760.0,1016 2754.0,1027 2742.5,1035" fill="none" stroke="#236940" stroke-width="2.5" /><text x="2686.390625" y="1019.0" fill="#236940" font-size="24" font-family="Liberation Mono, monospace">MOV</text><text x="2578.34375" y="969.0" fill="#1764a6" font-size="24" font-family="Liberation Mono, monospace">Transfer_Timer.ACC</text><text x="2578.34375" y="1068.0" fill="#193b2d" font-size="24" font-family="Liberation Mono, monospace">WH_CDL_LastTimerMs</text><text x="2686.40625" y="1104.0" fill="#52685c" font-size="18" font-family="Liberation Mono, monospace">MOVE</text><polyline points="2860,1010 2900,1010" fill="none" stroke="#193b2d" stroke-width="2.5" /><text x="130" y="1194.0" fill="#52685c" font-size="24" font-family="Liberation Mono, monospace">ADDED · Technical fault -&gt; state 900.</text><rect x="20" y="1283" width="52" height="34" fill="#eaf1ec" stroke="#b42332" stroke-width="2" /><text x="29.8203125" y="1306.0" fill="#b42332" font-size="17" font-family="Liberation Sans, Arial, sans-serif">003</text><polyline points="105,1300 145,1300" fill="none" stroke="#193b2d" stroke-width="2.5" /><polyline points="145,1300 255.0,1300" fill="none" stroke="#193b2d" stroke-width="2.5" /><polyline points="335.0,1300 445,1300" fill="none" stroke="#193b2d" stroke-width="2.5" /><polyline points="255.0,1278 255.0,1322" fill="none" stroke="#193b2d" stroke-width="2.5" /><polyline points="335.0,1278 335.0,1322" fill="none" stroke="#193b2d" stroke-width="2.5" /><text x="285.796875" y="1309.0" fill="#193b2d" font-size="24" font-family="Liberation Mono, monospace">≠</text><text x="206.5625" y="1259.0" fill="#b42332" font-size="24" font-family="Liberation Mono, monospace">WH_CDL_Fault</text><text x="285.796875" y="1358.0" fill="#193b2d" font-size="24" font-family="Liberation Mono, monospace">0</text><text x="282.203125" y="1394.0" fill="#52685c" font-size="18" font-family="Liberation Mono, monospace">NE</text><polyline points="445,1300 2560,1300" fill="none" stroke="#193b2d" stroke-width="2.5" /><polyline points="2560,1300 2660.0,1300" fill="none" stroke="#193b2d" stroke-width="2.5" /><polyline points="2760.0,1300 2860,1300" fill="none" stroke="#193b2d" stroke-width="2.5" /><polyline points="2677.5,1275 2666.0,1283 2660.0,1294 2660.0,1306 2666.0,1317 2677.5,1325" fill="none" stroke="#236940" stroke-width="2.5" /><polyline points="2742.5,1275 2754.0,1283 2760.0,1294 2760.0,1306 2754.0,1317 2742.5,1325" fill="none" stroke="#236940" stroke-width="2.5" /><text x="2686.390625" y="1309.0" fill="#236940" font-size="24" font-family="Liberation Mono, monospace">MOV</text><text x="2686.390625" y="1259.0" fill="#806000" font-size="24" font-family="Liberation Mono, monospace">900</text><text x="2621.5625" y="1358.0" fill="#806000" font-size="24" font-family="Liberation Mono, monospace">WH_CDL_State</text><text x="2686.40625" y="1394.0" fill="#52685c" font-size="18" font-family="Liberation Mono, monospace">MOVE</text><polyline points="2860,1300 2900,1300" fill="none" stroke="#193b2d" stroke-width="2.5" /><rect x="0" y="0" width="3000" height="1505" fill="none" stroke="#52685c" stroke-width="2" /><rect x="7" y="268" width="5" height="319" fill="#b42332" stroke="#b42332" stroke-width="2" /><text x="21.9765625" y="470.0" fill="#b42332" font-size="16" font-family="Liberation Mono, monospace">FAULT</text><text x="21.9765625" y="490.0" fill="#b42332" font-size="16" font-family="Liberation Mono, monospace">ABORT</text><rect x="7" y="593" width="5" height="284" fill="#b42332" stroke="#b42332" stroke-width="2" /><text x="21.9765625" y="760.0" fill="#b42332" font-size="16" font-family="Liberation Mono, monospace">FAULT</text><text x="21.9765625" y="780.0" fill="#b42332" font-size="16" font-family="Liberation Mono, monospace">TIMER</text><rect x="7" y="883" width="5" height="284" fill="#286951" stroke="#286951" stroke-width="2" /><text x="17.171875" y="1050.0" fill="#286951" font-size="16" font-family="Liberation Mono, monospace">TIME</text><text x="17.171875" y="1070.0" fill="#286951" font-size="16" font-family="Liberation Mono, monospace">SAMPLE</text><rect x="7" y="1173" width="5" height="284" fill="#b42332" stroke="#b42332" stroke-width="2" /><text x="21.9765625" y="1340.0" fill="#b42332" font-size="16" font-family="Liberation Mono, monospace">FAULT</text><text x="21.9765625" y="1360.0" fill="#b42332" font-size="16" font-family="Liberation Mono, monospace">LATCH</text></svg>