<?xml version='1.0' encoding='utf-8'?>
<svg xmlns="http://www.w3.org/2000/svg" style="background-color:#07110e" width="3000" height="2060.0" viewBox="0 265 3000 2060" role="img"><title>24 · CDL / Automatic_Cycle/WH_CDL_Stop</title><rect x="0" y="0" width="3000" height="6544.0" fill="#07110e" stroke="#07110e" stroke-width="2" /><polyline points="105,265 105,6469.0" fill="none" stroke="#edf8f1" stroke-width="2.5" /><polyline points="2900,265 2900,6469.0" fill="none" stroke="#edf8f1" stroke-width="2.5" /><text x="130" y="289.0" fill="#8da69b" font-size="24" font-family="Liberation Mono, monospace">ADDED · Timer regression has first priority at the original stop boundary.</text><rect x="20" y="378" width="52" height="34" fill="#0d241d" stroke="#ff7d72" stroke-width="2" /><text x="29.8203125" y="401.0" fill="#ff7d72" font-size="17" font-family="Liberation Sans, Arial, sans-serif">000</text><polyline points="105,395 145,395" fill="none" stroke="#edf8f1" stroke-width="2.5" /><polyline points="145,395 255.0,395" fill="none" stroke="#edf8f1" stroke-width="2.5" /><polyline points="335.0,395 445,395" fill="none" stroke="#edf8f1" stroke-width="2.5" /><polyline points="255.0,373 255.0,417" fill="none" stroke="#edf8f1" stroke-width="2.5" /><polyline points="335.0,373 335.0,417" fill="none" stroke="#edf8f1" stroke-width="2.5" /><text x="285.796875" y="404.0" fill="#edf8f1" font-size="24" font-family="Liberation Mono, monospace">=</text><text x="206.5625" y="354.0" fill="#ffc35a" font-size="24" font-family="Liberation Mono, monospace">WH_CDL_State</text><text x="278.59375" y="453.0" fill="#ffc35a" font-size="24" font-family="Liberation Mono, monospace">20</text><text x="282.203125" y="489.0" fill="#8da69b" font-size="18" font-family="Liberation Mono, monospace">EQ</text><polyline points="445,395 555.0,395" fill="none" stroke="#edf8f1" stroke-width="2.5" /><polyline points="635.0,395 745,395" fill="none" stroke="#edf8f1" stroke-width="2.5" /><polyline points="555.0,373 555.0,417" fill="none" stroke="#edf8f1" stroke-width="2.5" /><polyline points="635.0,373 635.0,417" fill="none" stroke="#edf8f1" stroke-width="2.5" /><text x="585.796875" y="404.0" fill="#edf8f1" font-size="24" font-family="Liberation Mono, monospace">&lt;</text><text x="463.34375" y="354.0" fill="#71b7ff" font-size="24" font-family="Liberation Mono, monospace">Transfer_Timer.ACC</text><text x="463.34375" y="453.0" fill="#edf8f1" font-size="24" font-family="Liberation Mono, monospace">WH_CDL_LastTimerMs</text><text x="582.203125" y="489.0" fill="#8da69b" font-size="18" font-family="Liberation Mono, monospace">LT</text><polyline points="745,395 2560,395" fill="none" stroke="#edf8f1" stroke-width="2.5" /><polyline points="2560,395 2660.0,395" fill="none" stroke="#edf8f1" stroke-width="2.5" /><polyline points="2760.0,395 2860,395" fill="none" stroke="#edf8f1" stroke-width="2.5" /><polyline points="2677.5,370 2666.0,378 2660.0,389 2660.0,401 2666.0,412 2677.5,420" fill="none" stroke="#69e69d" stroke-width="2.5" /><polyline points="2742.5,370 2754.0,378 2760.0,389 2760.0,401 2754.0,412 2742.5,420" fill="none" stroke="#69e69d" stroke-width="2.5" /><text x="2686.390625" y="404.0" fill="#69e69d" font-size="24" font-family="Liberation Mono, monospace">MOV</text><text x="2700.796875" y="354.0" fill="#ff7d72" font-size="24" font-family="Liberation Mono, monospace">6</text><text x="2621.5625" y="453.0" fill="#ff7d72" font-size="24" font-family="Liberation Mono, monospace">WH_CDL_Fault</text><text x="2686.40625" y="489.0" fill="#8da69b" font-size="18" font-family="Liberation Mono, monospace">MOVE</text><polyline points="2860,395 2900,395" fill="none" stroke="#edf8f1" stroke-width="2.5" /><text x="130" y="579.0" fill="#8da69b" font-size="24" font-family="Liberation Mono, monospace">ADDED · Bound the next publication counter and reject an invalid raw timer.</text><rect x="20" y="668" width="52" height="34" fill="#0d241d" stroke="#ff7d72" stroke-width="2" /><text x="29.8203125" y="691.0" fill="#ff7d72" font-size="17" font-family="Liberation Sans, Arial, sans-serif">001</text><polyline points="105,685 145,685" fill="none" stroke="#edf8f1" stroke-width="2.5" /><polyline points="145,685 255.0,685" fill="none" stroke="#edf8f1" stroke-width="2.5" /><polyline points="335.0,685 445,685" fill="none" stroke="#edf8f1" stroke-width="2.5" /><polyline points="255.0,663 255.0,707" fill="none" stroke="#edf8f1" stroke-width="2.5" /><polyline points="335.0,663 335.0,707" fill="none" stroke="#edf8f1" stroke-width="2.5" /><text x="285.796875" y="694.0" fill="#edf8f1" font-size="24" font-family="Liberation Mono, monospace">=</text><text x="206.5625" y="644.0" fill="#ffc35a" font-size="24" font-family="Liberation Mono, monospace">WH_CDL_State</text><text x="278.59375" y="743.0" fill="#ffc35a" font-size="24" font-family="Liberation Mono, monospace">20</text><text x="282.203125" y="779.0" fill="#8da69b" font-size="18" font-family="Liberation Mono, monospace">EQ</text><polyline points="445,685 555.0,685" fill="none" stroke="#edf8f1" stroke-width="2.5" /><polyline points="635.0,685 745,685" fill="none" stroke="#edf8f1" stroke-width="2.5" /><polyline points="555.0,663 555.0,707" fill="none" stroke="#edf8f1" stroke-width="2.5" /><polyline points="635.0,663 635.0,707" fill="none" stroke="#edf8f1" stroke-width="2.5" /><text x="585.796875" y="694.0" fill="#edf8f1" font-size="24" font-family="Liberation Mono, monospace">≥</text><text x="463.34375" y="644.0" fill="#71b7ff" font-size="24" font-family="Liberation Mono, monospace">Transfer_Timer.ACC</text><text x="463.34375" y="743.0" fill="#edf8f1" font-size="24" font-family="Liberation Mono, monospace">WH_CDL_LastTimerMs</text><text x="582.203125" y="779.0" fill="#8da69b" font-size="18" font-family="Liberation Mono, monospace">GE</text><polyline points="745,685 775,685" fill="none" stroke="#edf8f1" stroke-width="2.5" /><polyline points="775,685 885.0,685" fill="none" stroke="#edf8f1" stroke-width="2.5" /><polyline points="965.0,685 1075,685" fill="none" stroke="#edf8f1" stroke-width="2.5" /><polyline points="885.0,663 885.0,707" fill="none" stroke="#edf8f1" stroke-width="2.5" /><polyline points="965.0,663 965.0,707" fill="none" stroke="#edf8f1" stroke-width="2.5" /><text x="915.796875" y="694.0" fill="#edf8f1" font-size="24" font-family="Liberation Mono, monospace">=</text><text x="814.953125" y="644.0" fill="#edf8f1" font-size="24" font-family="Liberation Mono, monospace">WH_CDL_Sequence</text><text x="872.578125" y="743.0" fill="#c4a7ff" font-size="24" font-family="Liberation Mono, monospace">MAX_INT</text><text x="912.203125" y="779.0" fill="#8da69b" font-size="18" font-family="Liberation Mono, monospace">EQ</text><polyline points="1075,685 1105,685" fill="none" stroke="#edf8f1" stroke-width="2.5" /><polyline points="745,885 775,885" fill="none" stroke="#edf8f1" stroke-width="2.5" /><polyline points="775,885 885.0,885" fill="none" stroke="#edf8f1" stroke-width="2.5" /><polyline points="965.0,885 1075,885" fill="none" stroke="#edf8f1" stroke-width="2.5" /><polyline points="885.0,863 885.0,907" fill="none" stroke="#edf8f1" stroke-width="2.5" /><polyline points="965.0,863 965.0,907" fill="none" stroke="#edf8f1" stroke-width="2.5" /><text x="915.796875" y="894.0" fill="#edf8f1" font-size="24" font-family="Liberation Mono, monospace">&lt;</text><text x="793.34375" y="844.0" fill="#71b7ff" font-size="24" font-family="Liberation Mono, monospace">Transfer_Timer.ACC</text><text x="915.796875" y="943.0" fill="#edf8f1" font-size="24" font-family="Liberation Mono, monospace">0</text><text x="912.203125" y="979.0" fill="#8da69b" font-size="18" font-family="Liberation Mono, monospace">LT</text><polyline points="1075,885 1105,885" fill="none" stroke="#edf8f1" stroke-width="2.5" /><polyline points="745,685 745,885" fill="none" stroke="#edf8f1" stroke-width="2.5" /><polyline points="1105,685 1105,885" fill="none" stroke="#edf8f1" stroke-width="2.5" /><polyline points="1105,685 2560,685" fill="none" stroke="#edf8f1" stroke-width="2.5" /><polyline points="2560,685 2660.0,685" fill="none" stroke="#edf8f1" stroke-width="2.5" /><polyline points="2760.0,685 2860,685" fill="none" stroke="#edf8f1" stroke-width="2.5" /><polyline points="2677.5,660 2666.0,668 2660.0,679 2660.0,691 2666.0,702 2677.5,710" fill="none" stroke="#69e69d" stroke-width="2.5" /><polyline points="2742.5,660 2754.0,668 2760.0,679 2760.0,691 2754.0,702 2742.5,710" fill="none" stroke="#69e69d" stroke-width="2.5" /><text x="2686.390625" y="694.0" fill="#69e69d" font-size="24" font-family="Liberation Mono, monospace">MOV</text><text x="2700.796875" y="644.0" fill="#ff7d72" font-size="24" font-family="Liberation Mono, monospace">3</text><text x="2621.5625" y="743.0" fill="#ff7d72" font-size="24" font-family="Liberation Mono, monospace">WH_CDL_Fault</text><text x="2686.40625" y="779.0" fill="#8da69b" font-size="18" font-family="Liberation Mono, monospace">MOVE</text><polyline points="2860,685 2900,685" fill="none" stroke="#edf8f1" stroke-width="2.5" /><text x="130" y="1069.0" fill="#8da69b" font-size="24" font-family="Liberation Mono, monospace">ADDED · Evaluate raw-event publication once before changing sequence/state.</text><rect x="20" y="1163" width="52" height="34" fill="#0d241d" stroke="#ffc35a" stroke-width="2" /><text x="29.8203125" y="1186.0" fill="#ffc35a" font-size="17" font-family="Liberation Sans, Arial, sans-serif">002</text><polyline points="105,1180 145,1180" fill="none" stroke="#edf8f1" stroke-width="2.5" /><polyline points="145,1180 255.0,1180" fill="none" stroke="#edf8f1" stroke-width="2.5" /><polyline points="335.0,1180 445,1180" fill="none" stroke="#edf8f1" stroke-width="2.5" /><polyline points="255.0,1158 255.0,1202" fill="none" stroke="#edf8f1" stroke-width="2.5" /><polyline points="335.0,1158 335.0,1202" fill="none" stroke="#edf8f1" stroke-width="2.5" /><text x="285.796875" y="1189.0" fill="#edf8f1" font-size="24" font-family="Liberation Mono, monospace">=</text><text x="206.5625" y="1139.0" fill="#ffc35a" font-size="24" font-family="Liberation Mono, monospace">WH_CDL_State</text><text x="278.59375" y="1238.0" fill="#ffc35a" font-size="24" font-family="Liberation Mono, monospace">20</text><text x="282.203125" y="1274.0" fill="#8da69b" font-size="18" font-family="Liberation Mono, monospace">EQ</text><polyline points="445,1180 555.0,1180" fill="none" stroke="#edf8f1" stroke-width="2.5" /><polyline points="635.0,1180 745,1180" fill="none" stroke="#edf8f1" stroke-width="2.5" /><polyline points="555.0,1158 555.0,1202" fill="none" stroke="#edf8f1" stroke-width="2.5" /><polyline points="635.0,1158 635.0,1202" fill="none" stroke="#edf8f1" stroke-width="2.5" /><text x="585.796875" y="1189.0" fill="#edf8f1" font-size="24" font-family="Liberation Mono, monospace">≥</text><text x="463.34375" y="1139.0" fill="#71b7ff" font-size="24" font-family="Liberation Mono, monospace">Transfer_Timer.ACC</text><text x="463.34375" y="1238.0" fill="#edf8f1" font-size="24" font-family="Liberation Mono, monospace">WH_CDL_LastTimerMs</text><text x="582.203125" y="1274.0" fill="#8da69b" font-size="18" font-family="Liberation Mono, monospace">GE</text><polyline points="745,1180 855.0,1180" fill="none" stroke="#edf8f1" stroke-width="2.5" /><polyline points="935.0,1180 1045,1180" fill="none" stroke="#edf8f1" stroke-width="2.5" /><polyline points="855.0,1158 855.0,1202" fill="none" stroke="#edf8f1" stroke-width="2.5" /><polyline points="935.0,1158 935.0,1202" fill="none" stroke="#edf8f1" stroke-width="2.5" /><text x="885.796875" y="1189.0" fill="#edf8f1" font-size="24" font-family="Liberation Mono, monospace">≠</text><text x="784.953125" y="1139.0" fill="#edf8f1" font-size="24" font-family="Liberation Mono, monospace">WH_CDL_Sequence</text><text x="842.578125" y="1238.0" fill="#c4a7ff" font-size="24" font-family="Liberation Mono, monospace">MAX_INT</text><text x="882.203125" y="1274.0" fill="#8da69b" font-size="18" font-family="Liberation Mono, monospace">NE</text><polyline points="1045,1180 1155.0,1180" fill="none" stroke="#edf8f1" stroke-width="2.5" /><polyline points="1235.0,1180 1345,1180" fill="none" stroke="#edf8f1" stroke-width="2.5" /><polyline points="1155.0,1158 1155.0,1202" fill="none" stroke="#edf8f1" stroke-width="2.5" /><polyline points="1235.0,1158 1235.0,1202" fill="none" stroke="#edf8f1" stroke-width="2.5" /><text x="1185.796875" y="1189.0" fill="#edf8f1" font-size="24" font-family="Liberation Mono, monospace">≥</text><text x="1063.34375" y="1139.0" fill="#71b7ff" font-size="24" font-family="Liberation Mono, monospace">Transfer_Timer.ACC</text><text x="1185.796875" y="1238.0" fill="#edf8f1" font-size="24" font-family="Liberation Mono, monospace">0</text><text x="1182.203125" y="1274.0" fill="#8da69b" font-size="18" font-family="Liberation Mono, monospace">GE</text><polyline points="1345,1180 1455.0,1180" fill="none" stroke="#edf8f1" stroke-width="2.5" /><polyline points="1535.0,1180 1645,1180" fill="none" stroke="#edf8f1" stroke-width="2.5" /><polyline points="1455.0,1158 1455.0,1202" fill="none" stroke="#edf8f1" stroke-width="2.5" /><polyline points="1535.0,1158 1535.0,1202" fill="none" stroke="#edf8f1" stroke-width="2.5" /><text x="1485.796875" y="1189.0" fill="#edf8f1" font-size="24" font-family="Liberation Mono, monospace">=</text><text x="1406.5625" y="1139.0" fill="#ff7d72" font-size="24" font-family="Liberation Mono, monospace">WH_CDL_Fault</text><text x="1485.796875" y="1238.0" fill="#edf8f1" font-size="24" font-family="Liberation Mono, monospace">0</text><text x="1482.203125" y="1274.0" fill="#8da69b" font-size="18" font-family="Liberation Mono, monospace">EQ</text><polyline points="1645,1180 2560,1180" fill="none" stroke="#edf8f1" stroke-width="2.5" /><polyline points="2560,1180 2660.0,1180" fill="none" stroke="#edf8f1" stroke-width="2.5" /><polyline points="2760.0,1180 2860,1180" fill="none" stroke="#edf8f1" stroke-width="2.5" /><polyline points="2677.5,1155 2666.0,1163 2660.0,1174 2660.0,1186 2666.0,1197 2677.5,1205" fill="none" stroke="#69e69d" stroke-width="2.5" /><polyline points="2742.5,1155 2754.0,1163 2760.0,1174 2760.0,1186 2754.0,1197 2742.5,1205" fill="none" stroke="#69e69d" stroke-width="2.5" /><text x="2607.15625" y="1139.0" fill="#ffc35a" font-size="24" font-family="Liberation Mono, monospace">WH_CDL_Publish</text><text x="2691.8046875" y="1240.0" fill="#8da69b" font-size="18" font-family="Liberation Mono, monospace">OTE</text><polyline points="2860,1180 2900,1180" fill="none" stroke="#edf8f1" stroke-width="2.5" /><text x="130" y="1364.0" fill="#8da69b" font-size="24" font-family="Liberation Mono, monospace">ADDED · Freeze complete raw timer payload before the original stop rung; Sequence remains zero.</text><rect x="20" y="1458" width="52" height="34" fill="#0d241d" stroke="#8da69b" stroke-width="2" /><text x="29.8203125" y="1481.0" fill="#8da69b" font-size="17" font-family="Liberation Sans, Arial, sans-serif">003</text><polyline points="105,1475 145,1475" fill="none" stroke="#edf8f1" stroke-width="2.5" /><polyline points="145,1475 255.0,1475" fill="none" stroke="#edf8f1" stroke-width="2.5" /><polyline points="335.0,1475 445,1475" fill="none" stroke="#edf8f1" stroke-width="2.5" /><polyline points="255.0,1453 255.0,1497" fill="none" stroke="#edf8f1" stroke-width="2.5" /><polyline points="335.0,1453 335.0,1497" fill="none" stroke="#edf8f1" stroke-width="2.5" /><text x="192.15625" y="1434.0" fill="#ffc35a" font-size="24" font-family="Liberation Mono, monospace">WH_CDL_Publish</text><text x="276.8046875" y="1535.0" fill="#8da69b" font-size="18" font-family="Liberation Mono, monospace">XIC</text><polyline points="445,1475 2500,1475" fill="none" stroke="#edf8f1" stroke-width="2.5" /><polyline points="2500,1475 2530,1475" fill="none" stroke="#edf8f1" stroke-width="2.5" /><polyline points="2530,1475 2630.0,1475" fill="none" stroke="#edf8f1" stroke-width="2.5" /><polyline points="2730.0,1475 2830,1475" fill="none" stroke="#edf8f1" stroke-width="2.5" /><polyline points="2647.5,1450 2636.0,1458 2630.0,1469 2630.0,1481 2636.0,1492 2647.5,1500" fill="none" stroke="#69e69d" stroke-width="2.5" /><polyline points="2712.5,1450 2724.0,1458 2730.0,1469 2730.0,1481 2724.0,1492 2712.5,1500" fill="none" stroke="#69e69d" stroke-width="2.5" /><text x="2656.390625" y="1484.0" fill="#69e69d" font-size="24" font-family="Liberation Mono, monospace">MOV</text><text x="2670.796875" y="1434.0" fill="#edf8f1" font-size="24" font-family="Liberation Mono, monospace">0</text><text x="2584.359375" y="1533.0" fill="#69e69d" font-size="24" font-family="Liberation Mono, monospace">WH_CDL_Event.</text><text x="2584.359375" y="1563.0" fill="#69e69d" font-size="24" font-family="Liberation Mono, monospace">Sequence</text><text x="2656.40625" y="1599.0" fill="#8da69b" font-size="18" font-family="Liberation Mono, monospace">MOVE</text><polyline points="2830,1475 2860,1475" fill="none" stroke="#edf8f1" stroke-width="2.5" /><polyline points="2500,1705 2530,1705" fill="none" stroke="#edf8f1" stroke-width="2.5" /><polyline points="2530,1705 2630.0,1705" fill="none" stroke="#edf8f1" stroke-width="2.5" /><polyline points="2730.0,1705 2830,1705" fill="none" stroke="#edf8f1" stroke-width="2.5" /><polyline points="2647.5,1680 2636.0,1688 2630.0,1699 2630.0,1711 2636.0,1722 2647.5,1730" fill="none" stroke="#69e69d" stroke-width="2.5" /><polyline points="2712.5,1680 2724.0,1688 2730.0,1699 2730.0,1711 2724.0,1722 2712.5,1730" fill="none" stroke="#69e69d" stroke-width="2.5" /><text x="2656.390625" y="1714.0" fill="#69e69d" font-size="24" font-family="Liberation Mono, monospace">MOV</text><text x="2598.765625" y="1664.0" fill="#edf8f1" font-size="24" font-family="Liberation Mono, monospace">WH_CDL_Boot</text><text x="2555.546875" y="1763.0" fill="#69e69d" font-size="24" font-family="Liberation Mono, monospace">WH_CDL_Event.Boot</text><text x="2656.40625" y="1799.0" fill="#8da69b" font-size="18" font-family="Liberation Mono, monospace">MOVE</text><polyline points="2830,1705 2860,1705" fill="none" stroke="#edf8f1" stroke-width="2.5" /><polyline points="2500,1905 2530,1905" fill="none" stroke="#edf8f1" stroke-width="2.5" /><polyline points="2530,1905 2630.0,1905" fill="none" stroke="#edf8f1" stroke-width="2.5" /><polyline points="2730.0,1905 2830,1905" fill="none" stroke="#edf8f1" stroke-width="2.5" /><polyline points="2647.5,1880 2636.0,1888 2630.0,1899 2630.0,1911 2636.0,1922 2647.5,1930" fill="none" stroke="#69e69d" stroke-width="2.5" /><polyline points="2712.5,1880 2724.0,1888 2730.0,1899 2730.0,1911 2724.0,1922 2712.5,1930" fill="none" stroke="#69e69d" stroke-width="2.5" /><text x="2656.390625" y="1914.0" fill="#69e69d" font-size="24" font-family="Liberation Mono, monospace">MOV</text><text x="2670.796875" y="1864.0" fill="#edf8f1" font-size="24" font-family="Liberation Mono, monospace">1</text><text x="2555.546875" y="1963.0" fill="#69e69d" font-size="24" font-family="Liberation Mono, monospace">WH_CDL_Event.Kind</text><text x="2656.40625" y="1999.0" fill="#8da69b" font-size="18" font-family="Liberation Mono, monospace">MOVE</text><polyline points="2830,1905 2860,1905" fill="none" stroke="#edf8f1" stroke-width="2.5" /><polyline points="2500,2135 2530,2135" fill="none" stroke="#edf8f1" stroke-width="2.5" /><polyline points="2530,2135 2630.0,2135" fill="none" stroke="#edf8f1" stroke-width="2.5" /><polyline points="2730.0,2135 2830,2135" fill="none" stroke="#edf8f1" stroke-width="2.5" /><polyline points="2647.5,2110 2636.0,2118 2630.0,2129 2630.0,2141 2636.0,2152 2647.5,2160" fill="none" stroke="#69e69d" stroke-width="2.5" /><polyline points="2712.5,2110 2724.0,2118 2730.0,2129 2730.0,2141 2724.0,2152 2712.5,2160" fill="none" stroke="#69e69d" stroke-width="2.5" /><text x="2656.390625" y="2144.0" fill="#69e69d" font-size="24" font-family="Liberation Mono, monospace">MOV</text><text x="2577.15625" y="2064.0" fill="#edf8f1" font-size="24" font-family="Liberation Mono, monospace">WH_CDL_Started</text><text x="2577.15625" y="2094.0" fill="#edf8f1" font-size="24" font-family="Liberation Mono, monospace">Furnace</text><text x="2584.359375" y="2193.0" fill="#69e69d" font-size="24" font-family="Liberation Mono, monospace">WH_CDL_Event.</text><text x="2584.359375" y="2223.0" fill="#69e69d" font-size="24" font-family="Liberation Mono, monospace">Furnace</text><text x="2656.40625" y="2259.0" fill="#8da69b" font-size="18" font-family="Liberation Mono, monospace">MOVE</text><polyline points="2830,2135 2860,2135" fill="none" stroke="#edf8f1" stroke-width="2.5" /><polyline points="2500,1475 2500,2135" fill="none" stroke="#edf8f1" stroke-width="2.5" /><polyline points="2860,1475 2860,2135" fill="none" stroke="#edf8f1" stroke-width="2.5" /><polyline points="2860,1475 2900,1475" fill="none" stroke="#edf8f1" stroke-width="2.5" /><text x="130" y="2349.0" fill="#8da69b" font-size="24" font-family="Liberation Mono, monospace">ADDED · Freeze complete raw timer payload before the original stop rung; Sequence remains zero.</text><rect x="0" y="0" width="3000" height="6544.0" fill="none" stroke="#8da69b" stroke-width="2" /><rect x="7" y="268" width="5" height="284" fill="#ff7d72" stroke="#ff7d72" stroke-width="2" /><text x="21.9765625" y="435.0" fill="#ff7d72" font-size="16" font-family="Liberation Mono, monospace">FAULT</text><text x="21.9765625" y="455.0" fill="#ff7d72" font-size="16" font-family="Liberation Mono, monospace">TIMER</text><rect x="7" y="558" width="5" height="484" fill="#ff7d72" stroke="#ff7d72" stroke-width="2" /><text x="21.9765625" y="725.0" fill="#ff7d72" font-size="16" font-family="Liberation Mono, monospace">FAULT</text><text x="21.9765625" y="745.0" fill="#ff7d72" font-size="16" font-family="Liberation Mono, monospace">RANGE</text><rect x="7" y="1048" width="5" height="289" fill="#ffc35a" stroke="#ffc35a" stroke-width="2" /><text x="21.9765625" y="1220.0" fill="#ffc35a" font-size="16" font-family="Liberation Mono, monospace">STATE</text><text x="21.9765625" y="1240.0" fill="#ffc35a" font-size="16" font-family="Liberation Mono, monospace">ADMIT</text><rect x="7" y="1343" width="5" height="979" fill="#8da69b" stroke="#8da69b" stroke-width="2" /><text x="7.5625" y="1515.0" fill="#8da69b" font-size="16" font-family="Liberation Mono, monospace">MAP</text><text x="7.5625" y="1535.0" fill="#8da69b" font-size="16" font-family="Liberation Mono, monospace">SNAPSHOT</text><rect x="7" y="2328" width="5" height="1248.0" fill="#8da69b" stroke="#8da69b" stroke-width="2" /></svg>