<?xml version='1.0' encoding='utf-8'?>
<svg xmlns="http://www.w3.org/2000/svg" style="background-color:#ffffff" width="3000" height="1447.0" viewBox="0 2045 3000 1447" role="img"><title>07 · CDL1 / ExternalComms/WH_CDL_Init</title><rect x="0" y="0" width="3000" height="3492.0" fill="#ffffff" stroke="#ffffff" stroke-width="2" /><polyline points="105,265 105,3417.0" fill="none" stroke="#193b2d" stroke-width="2.5" /><polyline points="2900,265 2900,3417.0" fill="none" stroke="#193b2d" stroke-width="2.5" /><text x="130" y="2069.0" fill="#52685c" font-size="24" font-family="Liberation Mono, monospace">ADDED · Initialize the raw observer without modifying the legacy timer.</text><rect x="20" y="2158" width="52" height="34" fill="#eaf1ec" stroke="#806000" stroke-width="2" /><text x="29.8203125" y="2181.0" fill="#806000" font-size="17" font-family="Liberation Sans, Arial, sans-serif">003</text><polyline points="105,2175 145,2175" fill="none" stroke="#193b2d" stroke-width="2.5" /><polyline points="145,2175 2500,2175" fill="none" stroke="#193b2d" stroke-width="2.5" /><polyline points="2500,2175 2530,2175" fill="none" stroke="#193b2d" stroke-width="2.5" /><polyline points="2530,2175 2630.0,2175" fill="none" stroke="#193b2d" stroke-width="2.5" /><polyline points="2730.0,2175 2830,2175" fill="none" stroke="#193b2d" stroke-width="2.5" /><polyline points="2647.5,2150 2636.0,2158 2630.0,2169 2630.0,2181 2636.0,2192 2647.5,2200" fill="none" stroke="#236940" stroke-width="2.5" /><polyline points="2712.5,2150 2724.0,2158 2730.0,2169 2730.0,2181 2724.0,2192 2712.5,2200" fill="none" stroke="#236940" stroke-width="2.5" /><text x="2656.390625" y="2184.0" fill="#236940" font-size="24" font-family="Liberation Mono, monospace">MOV</text><text x="2670.796875" y="2134.0" fill="#193b2d" font-size="24" font-family="Liberation Mono, monospace">0</text><text x="2569.953125" y="2233.0" fill="#193b2d" font-size="24" font-family="Liberation Mono, monospace">WH_CDL_Sequence</text><text x="2656.40625" y="2269.0" fill="#52685c" font-size="18" font-family="Liberation Mono, monospace">MOVE</text><polyline points="2830,2175 2860,2175" fill="none" stroke="#193b2d" stroke-width="2.5" /><polyline points="2500,2375 2530,2375" fill="none" stroke="#193b2d" stroke-width="2.5" /><polyline points="2530,2375 2630.0,2375" fill="none" stroke="#193b2d" stroke-width="2.5" /><polyline points="2730.0,2375 2830,2375" fill="none" stroke="#193b2d" stroke-width="2.5" /><polyline points="2647.5,2350 2636.0,2358 2630.0,2369 2630.0,2381 2636.0,2392 2647.5,2400" fill="none" stroke="#236940" stroke-width="2.5" /><polyline points="2712.5,2350 2724.0,2358 2730.0,2369 2730.0,2381 2724.0,2392 2712.5,2400" fill="none" stroke="#236940" stroke-width="2.5" /><text x="2656.390625" y="2384.0" fill="#236940" font-size="24" font-family="Liberation Mono, monospace">MOV</text><text x="2670.796875" y="2334.0" fill="#193b2d" font-size="24" font-family="Liberation Mono, monospace">0</text><text x="2577.15625" y="2433.0" fill="#193b2d" font-size="24" font-family="Liberation Mono, monospace">WH_CDL_Furnace</text><text x="2656.40625" y="2469.0" fill="#52685c" font-size="18" font-family="Liberation Mono, monospace">MOVE</text><polyline points="2830,2375 2860,2375" fill="none" stroke="#193b2d" stroke-width="2.5" /><polyline points="2500,2580 2530,2580" fill="none" stroke="#193b2d" stroke-width="2.5" /><polyline points="2530,2580 2630.0,2580" fill="none" stroke="#193b2d" stroke-width="2.5" /><polyline points="2730.0,2580 2830,2580" fill="none" stroke="#193b2d" stroke-width="2.5" /><polyline points="2647.5,2555 2636.0,2563 2630.0,2574 2630.0,2586 2636.0,2597 2647.5,2605" fill="none" stroke="#236940" stroke-width="2.5" /><polyline points="2712.5,2555 2724.0,2563 2730.0,2574 2730.0,2586 2724.0,2597 2712.5,2605" fill="none" stroke="#236940" stroke-width="2.5" /><text x="2670.796875" y="2589.0" fill="#236940" font-size="24" font-family="Liberation Mono, monospace">U</text><text x="2555.546875" y="2539.0" fill="#806000" font-size="24" font-family="Liberation Mono, monospace">WH_CDL_WasRunning</text><text x="2661.8046875" y="2640.0" fill="#52685c" font-size="18" font-family="Liberation Mono, monospace">OTU</text><polyline points="2830,2580 2860,2580" fill="none" stroke="#193b2d" stroke-width="2.5" /><polyline points="2500,2750 2530,2750" fill="none" stroke="#193b2d" stroke-width="2.5" /><polyline points="2530,2750 2630.0,2750" fill="none" stroke="#193b2d" stroke-width="2.5" /><polyline points="2730.0,2750 2830,2750" fill="none" stroke="#193b2d" stroke-width="2.5" /><polyline points="2647.5,2725 2636.0,2733 2630.0,2744 2630.0,2756 2636.0,2767 2647.5,2775" fill="none" stroke="#236940" stroke-width="2.5" /><polyline points="2712.5,2725 2724.0,2733 2730.0,2744 2730.0,2756 2724.0,2767 2712.5,2775" fill="none" stroke="#236940" stroke-width="2.5" /><text x="2656.390625" y="2759.0" fill="#236940" font-size="24" font-family="Liberation Mono, monospace">MOV</text><text x="2670.796875" y="2709.0" fill="#193b2d" font-size="24" font-family="Liberation Mono, monospace">0</text><text x="2548.34375" y="2808.0" fill="#193b2d" font-size="24" font-family="Liberation Mono, monospace">WH_CDL_LastTimerMs</text><text x="2656.40625" y="2844.0" fill="#52685c" font-size="18" font-family="Liberation Mono, monospace">MOVE</text><polyline points="2830,2750 2860,2750" fill="none" stroke="#193b2d" stroke-width="2.5" /><polyline points="2500,2175 2500,2750" fill="none" stroke="#193b2d" stroke-width="2.5" /><polyline points="2860,2175 2860,2750" fill="none" stroke="#193b2d" stroke-width="2.5" /><polyline points="2860,2175 2900,2175" fill="none" stroke="#193b2d" stroke-width="2.5" /><text x="130" y="2934.0" fill="#52685c" font-size="24" font-family="Liberation Mono, monospace">ADDED · Clear the new-epoch mailbox and publication coil.</text><rect x="20" y="3056.0" width="52" height="34" fill="#eaf1ec" stroke="#806000" stroke-width="2" /><text x="29.8203125" y="3079.0" fill="#806000" font-size="17" font-family="Liberation Sans, Arial, sans-serif">004</text><polyline points="105,3073.0 145,3073.0" fill="none" stroke="#193b2d" stroke-width="2.5" /><polyline points="145,3073.0 2500,3073.0" fill="none" stroke="#193b2d" stroke-width="2.5" /><polyline points="2500,3073.0 2530,3073.0" fill="none" stroke="#193b2d" stroke-width="2.5" /><rect x="2545" y="2975.0" width="270" height="196.0" fill="#ffffff" stroke="#236940" stroke-width="2" /><text x="2560" y="3009.0" fill="#236940" font-size="24" font-family="Liberation Mono, monospace">COP</text><text x="2560" y="3047.0" fill="#193b2d" font-size="24" font-family="Liberation Mono, monospace">1: WH_CDL_Zero</text><text x="2560" y="3087.0" fill="#236940" font-size="24" font-family="Liberation Mono, monospace">2: WH_CDL_Event</text><text x="2560" y="3127.0" fill="#193b2d" font-size="24" font-family="Liberation Mono, monospace">3: 1</text><polyline points="2530,3073.0 2545,3073.0" fill="none" stroke="#193b2d" stroke-width="2.5" /><polyline points="2815,3073.0 2830,3073.0" fill="none" stroke="#193b2d" stroke-width="2.5" /><polyline points="2830,3073.0 2860,3073.0" fill="none" stroke="#193b2d" stroke-width="2.5" /><polyline points="2500,3317.0 2530,3317.0" fill="none" stroke="#193b2d" stroke-width="2.5" /><polyline points="2530,3317.0 2630.0,3317.0" fill="none" stroke="#193b2d" stroke-width="2.5" /><polyline points="2730.0,3317.0 2830,3317.0" fill="none" stroke="#193b2d" stroke-width="2.5" /><polyline points="2647.5,3292.0 2636.0,3300.0 2630.0,3311.0 2630.0,3323.0 2636.0,3334.0 2647.5,3342.0" fill="none" stroke="#236940" stroke-width="2.5" /><polyline points="2712.5,3292.0 2724.0,3300.0 2730.0,3311.0 2730.0,3323.0 2724.0,3334.0 2712.5,3342.0" fill="none" stroke="#236940" stroke-width="2.5" /><text x="2670.796875" y="3326.0" fill="#236940" font-size="24" font-family="Liberation Mono, monospace">U</text><text x="2577.15625" y="3276.0" fill="#806000" font-size="24" font-family="Liberation Mono, monospace">WH_CDL_Publish</text><text x="2661.8046875" y="3377.0" fill="#52685c" font-size="18" font-family="Liberation Mono, monospace">OTU</text><polyline points="2830,3317.0 2860,3317.0" fill="none" stroke="#193b2d" stroke-width="2.5" /><polyline points="2500,3073.0 2500,3317.0" fill="none" stroke="#193b2d" stroke-width="2.5" /><polyline points="2860,3073.0 2860,3317.0" fill="none" stroke="#193b2d" stroke-width="2.5" /><polyline points="2860,3073.0 2900,3073.0" fill="none" stroke="#193b2d" stroke-width="2.5" /><rect x="0" y="0" width="3000" height="3492.0" fill="none" stroke="#52685c" stroke-width="2" /><rect x="7" y="1303" width="5" height="739" fill="#806000" stroke="#806000" stroke-width="2" /><rect x="7" y="2048" width="5" height="859" fill="#806000" stroke="#806000" stroke-width="2" /><text x="21.9765625" y="2215.0" fill="#806000" font-size="16" font-family="Liberation Mono, monospace">STATE</text><text x="21.9765625" y="2235.0" fill="#806000" font-size="16" font-family="Liberation Mono, monospace">INIT</text><rect x="7" y="2913" width="5" height="531.0" fill="#806000" stroke="#806000" stroke-width="2" /><text x="21.9765625" y="3113.0" fill="#806000" font-size="16" font-family="Liberation Mono, monospace">STATE</text><text x="21.9765625" y="3133.0" fill="#806000" font-size="16" font-family="Liberation Mono, monospace">INIT</text></svg>