<?xml version='1.0' encoding='utf-8'?>
<svg xmlns="http://www.w3.org/2000/svg" style="background-color:#07110e" width="3000" height="2362.0" viewBox="0 29240 3000 2362" role="img"><title>31 · FDC / WH_Channel/Logic</title><rect x="0" y="0" width="3000" height="64884.0" fill="#07110e" stroke="#07110e" stroke-width="2" /><polyline points="105,265 105,64809.0" fill="none" stroke="#edf8f1" stroke-width="2.5" /><polyline points="2900,265 2900,64809.0" fill="none" stroke="#edf8f1" stroke-width="2.5" /><text x="130" y="29264.0" fill="#8da69b" font-size="24" font-family="Liberation Mono, monospace">ADDED · Bind the source event to the frozen full part/load identity; clear prior event flags before the sequence advances.</text><rect x="20" y="29416.0" width="52" height="34" fill="#0d241d" stroke="#8da69b" stroke-width="2" /><text x="29.8203125" y="29439.0" fill="#8da69b" font-size="17" font-family="Liberation Sans, Arial, sans-serif">049</text><polyline points="105,29433.0 145,29433.0" fill="none" stroke="#edf8f1" stroke-width="2.5" /><polyline points="145,29433.0 255.0,29433.0" fill="none" stroke="#edf8f1" stroke-width="2.5" /><polyline points="335.0,29433.0 445,29433.0" fill="none" stroke="#edf8f1" stroke-width="2.5" /><polyline points="255.0,29411.0 255.0,29455.0" fill="none" stroke="#edf8f1" stroke-width="2.5" /><polyline points="335.0,29411.0 335.0,29455.0" fill="none" stroke="#edf8f1" stroke-width="2.5" /><text x="242.578125" y="29392.0" fill="#ffc35a" font-size="24" font-family="Liberation Mono, monospace">MapEmit</text><text x="276.8046875" y="29493.0" fill="#8da69b" font-size="18" font-family="Liberation Mono, monospace">XIC</text><polyline points="445,29433.0 2500,29433.0" fill="none" stroke="#edf8f1" stroke-width="2.5" /><polyline points="2500,29433.0 2530,29433.0" fill="none" stroke="#edf8f1" stroke-width="2.5" /><rect x="2545" y="29305.0" width="270" height="256.0" fill="#07110e" stroke="#69e69d" stroke-width="2" /><text x="2560" y="29339.0" fill="#69e69d" font-size="24" font-family="Liberation Mono, monospace">COP</text><text x="2560" y="29377.0" fill="#edf8f1" font-size="24" font-family="Liberation Mono, monospace">1: Site.Item.str</text><text x="2560" y="29407.0" fill="#edf8f1" font-size="24" font-family="Liberation Mono, monospace">PressQA</text><text x="2560" y="29447.0" fill="#edf8f1" font-size="24" font-family="Liberation Mono, monospace">2: Source.</text><text x="2560" y="29477.0" fill="#edf8f1" font-size="24" font-family="Liberation Mono, monospace">Identity.PressQA</text><text x="2560" y="29517.0" fill="#edf8f1" font-size="24" font-family="Liberation Mono, monospace">3: 1</text><polyline points="2530,29433.0 2545,29433.0" fill="none" stroke="#edf8f1" stroke-width="2.5" /><polyline points="2815,29433.0 2830,29433.0" fill="none" stroke="#edf8f1" stroke-width="2.5" /><polyline points="2830,29433.0 2860,29433.0" fill="none" stroke="#edf8f1" stroke-width="2.5" /><polyline points="2500,29732.0 2530,29732.0" fill="none" stroke="#edf8f1" stroke-width="2.5" /><polyline points="2530,29732.0 2630.0,29732.0" fill="none" stroke="#edf8f1" stroke-width="2.5" /><polyline points="2730.0,29732.0 2830,29732.0" fill="none" stroke="#edf8f1" stroke-width="2.5" /><polyline points="2647.5,29707.0 2636.0,29715.0 2630.0,29726.0 2630.0,29738.0 2636.0,29749.0 2647.5,29757.0" fill="none" stroke="#69e69d" stroke-width="2.5" /><polyline points="2712.5,29707.0 2724.0,29715.0 2730.0,29726.0 2730.0,29738.0 2724.0,29749.0 2712.5,29757.0" fill="none" stroke="#69e69d" stroke-width="2.5" /><text x="2656.390625" y="29741.0" fill="#69e69d" font-size="24" font-family="Liberation Mono, monospace">MOV</text><text x="2577.15625" y="29661.0" fill="#edf8f1" font-size="24" font-family="Liberation Mono, monospace">Site.Item.Time</text><text x="2577.15625" y="29691.0" fill="#edf8f1" font-size="24" font-family="Liberation Mono, monospace">StampIn.Year</text><text x="2562.75" y="29790.0" fill="#edf8f1" font-size="24" font-family="Liberation Mono, monospace">Source.Identity.</text><text x="2562.75" y="29820.0" fill="#edf8f1" font-size="24" font-family="Liberation Mono, monospace">LoadStamp[0]</text><text x="2656.40625" y="29856.0" fill="#8da69b" font-size="18" font-family="Liberation Mono, monospace">MOVE</text><polyline points="2830,29732.0 2860,29732.0" fill="none" stroke="#edf8f1" stroke-width="2.5" /><polyline points="2500,29992.0 2530,29992.0" fill="none" stroke="#edf8f1" stroke-width="2.5" /><polyline points="2530,29992.0 2630.0,29992.0" fill="none" stroke="#edf8f1" stroke-width="2.5" /><polyline points="2730.0,29992.0 2830,29992.0" fill="none" stroke="#edf8f1" stroke-width="2.5" /><polyline points="2647.5,29967.0 2636.0,29975.0 2630.0,29986.0 2630.0,29998.0 2636.0,30009.0 2647.5,30017.0" fill="none" stroke="#69e69d" stroke-width="2.5" /><polyline points="2712.5,29967.0 2724.0,29975.0 2730.0,29986.0 2730.0,29998.0 2724.0,30009.0 2712.5,30017.0" fill="none" stroke="#69e69d" stroke-width="2.5" /><text x="2656.390625" y="30001.0" fill="#69e69d" font-size="24" font-family="Liberation Mono, monospace">MOV</text><text x="2577.15625" y="29921.0" fill="#edf8f1" font-size="24" font-family="Liberation Mono, monospace">Site.Item.Time</text><text x="2577.15625" y="29951.0" fill="#edf8f1" font-size="24" font-family="Liberation Mono, monospace">StampIn.Month</text><text x="2562.75" y="30050.0" fill="#edf8f1" font-size="24" font-family="Liberation Mono, monospace">Source.Identity.</text><text x="2562.75" y="30080.0" fill="#edf8f1" font-size="24" font-family="Liberation Mono, monospace">LoadStamp[1]</text><text x="2656.40625" y="30116.0" fill="#8da69b" font-size="18" font-family="Liberation Mono, monospace">MOVE</text><polyline points="2830,29992.0 2860,29992.0" fill="none" stroke="#edf8f1" stroke-width="2.5" /><polyline points="2500,30252.0 2530,30252.0" fill="none" stroke="#edf8f1" stroke-width="2.5" /><polyline points="2530,30252.0 2630.0,30252.0" fill="none" stroke="#edf8f1" stroke-width="2.5" /><polyline points="2730.0,30252.0 2830,30252.0" fill="none" stroke="#edf8f1" stroke-width="2.5" /><polyline points="2647.5,30227.0 2636.0,30235.0 2630.0,30246.0 2630.0,30258.0 2636.0,30269.0 2647.5,30277.0" fill="none" stroke="#69e69d" stroke-width="2.5" /><polyline points="2712.5,30227.0 2724.0,30235.0 2730.0,30246.0 2730.0,30258.0 2724.0,30269.0 2712.5,30277.0" fill="none" stroke="#69e69d" stroke-width="2.5" /><text x="2656.390625" y="30261.0" fill="#69e69d" font-size="24" font-family="Liberation Mono, monospace">MOV</text><text x="2577.15625" y="30181.0" fill="#edf8f1" font-size="24" font-family="Liberation Mono, monospace">Site.Item.Time</text><text x="2577.15625" y="30211.0" fill="#edf8f1" font-size="24" font-family="Liberation Mono, monospace">StampIn.Day</text><text x="2562.75" y="30310.0" fill="#edf8f1" font-size="24" font-family="Liberation Mono, monospace">Source.Identity.</text><text x="2562.75" y="30340.0" fill="#edf8f1" font-size="24" font-family="Liberation Mono, monospace">LoadStamp[2]</text><text x="2656.40625" y="30376.0" fill="#8da69b" font-size="18" font-family="Liberation Mono, monospace">MOVE</text><polyline points="2830,30252.0 2860,30252.0" fill="none" stroke="#edf8f1" stroke-width="2.5" /><polyline points="2500,29433.0 2500,30252.0" fill="none" stroke="#edf8f1" stroke-width="2.5" /><polyline points="2860,29433.0 2860,30252.0" fill="none" stroke="#edf8f1" stroke-width="2.5" /><polyline points="2860,29433.0 2900,29433.0" fill="none" stroke="#edf8f1" stroke-width="2.5" /><text x="130" y="30466.0" fill="#8da69b" font-size="24" font-family="Liberation Mono, monospace">ADDED · Bind the source event to the frozen full part/load identity; clear prior event flags before the sequence advances.</text><rect x="20" y="30585.0" width="52" height="34" fill="#0d241d" stroke="#8da69b" stroke-width="2" /><text x="29.8203125" y="30608.0" fill="#8da69b" font-size="17" font-family="Liberation Sans, Arial, sans-serif">050</text><polyline points="105,30602.0 145,30602.0" fill="none" stroke="#edf8f1" stroke-width="2.5" /><polyline points="145,30602.0 255.0,30602.0" fill="none" stroke="#edf8f1" stroke-width="2.5" /><polyline points="335.0,30602.0 445,30602.0" fill="none" stroke="#edf8f1" stroke-width="2.5" /><polyline points="255.0,30580.0 255.0,30624.0" fill="none" stroke="#edf8f1" stroke-width="2.5" /><polyline points="335.0,30580.0 335.0,30624.0" fill="none" stroke="#edf8f1" stroke-width="2.5" /><text x="242.578125" y="30561.0" fill="#ffc35a" font-size="24" font-family="Liberation Mono, monospace">MapEmit</text><text x="276.8046875" y="30662.0" fill="#8da69b" font-size="18" font-family="Liberation Mono, monospace">XIC</text><polyline points="445,30602.0 2500,30602.0" fill="none" stroke="#edf8f1" stroke-width="2.5" /><polyline points="2500,30602.0 2530,30602.0" fill="none" stroke="#edf8f1" stroke-width="2.5" /><polyline points="2530,30602.0 2630.0,30602.0" fill="none" stroke="#edf8f1" stroke-width="2.5" /><polyline points="2730.0,30602.0 2830,30602.0" fill="none" stroke="#edf8f1" stroke-width="2.5" /><polyline points="2647.5,30577.0 2636.0,30585.0 2630.0,30596.0 2630.0,30608.0 2636.0,30619.0 2647.5,30627.0" fill="none" stroke="#69e69d" stroke-width="2.5" /><polyline points="2712.5,30577.0 2724.0,30585.0 2730.0,30596.0 2730.0,30608.0 2724.0,30619.0 2712.5,30627.0" fill="none" stroke="#69e69d" stroke-width="2.5" /><text x="2656.390625" y="30611.0" fill="#69e69d" font-size="24" font-family="Liberation Mono, monospace">MOV</text><text x="2577.15625" y="30531.0" fill="#edf8f1" font-size="24" font-family="Liberation Mono, monospace">Site.Item.Time</text><text x="2577.15625" y="30561.0" fill="#edf8f1" font-size="24" font-family="Liberation Mono, monospace">StampIn.Hour</text><text x="2562.75" y="30660.0" fill="#edf8f1" font-size="24" font-family="Liberation Mono, monospace">Source.Identity.</text><text x="2562.75" y="30690.0" fill="#edf8f1" font-size="24" font-family="Liberation Mono, monospace">LoadStamp[3]</text><text x="2656.40625" y="30726.0" fill="#8da69b" font-size="18" font-family="Liberation Mono, monospace">MOVE</text><polyline points="2830,30602.0 2860,30602.0" fill="none" stroke="#edf8f1" stroke-width="2.5" /><polyline points="2500,30862.0 2530,30862.0" fill="none" stroke="#edf8f1" stroke-width="2.5" /><polyline points="2530,30862.0 2630.0,30862.0" fill="none" stroke="#edf8f1" stroke-width="2.5" /><polyline points="2730.0,30862.0 2830,30862.0" fill="none" stroke="#edf8f1" stroke-width="2.5" /><polyline points="2647.5,30837.0 2636.0,30845.0 2630.0,30856.0 2630.0,30868.0 2636.0,30879.0 2647.5,30887.0" fill="none" stroke="#69e69d" stroke-width="2.5" /><polyline points="2712.5,30837.0 2724.0,30845.0 2730.0,30856.0 2730.0,30868.0 2724.0,30879.0 2712.5,30887.0" fill="none" stroke="#69e69d" stroke-width="2.5" /><text x="2656.390625" y="30871.0" fill="#69e69d" font-size="24" font-family="Liberation Mono, monospace">MOV</text><text x="2577.15625" y="30791.0" fill="#edf8f1" font-size="24" font-family="Liberation Mono, monospace">Site.Item.Time</text><text x="2577.15625" y="30821.0" fill="#edf8f1" font-size="24" font-family="Liberation Mono, monospace">StampIn.Minute</text><text x="2562.75" y="30920.0" fill="#edf8f1" font-size="24" font-family="Liberation Mono, monospace">Source.Identity.</text><text x="2562.75" y="30950.0" fill="#edf8f1" font-size="24" font-family="Liberation Mono, monospace">LoadStamp[4]</text><text x="2656.40625" y="30986.0" fill="#8da69b" font-size="18" font-family="Liberation Mono, monospace">MOVE</text><polyline points="2830,30862.0 2860,30862.0" fill="none" stroke="#edf8f1" stroke-width="2.5" /><polyline points="2500,31122.0 2530,31122.0" fill="none" stroke="#edf8f1" stroke-width="2.5" /><polyline points="2530,31122.0 2630.0,31122.0" fill="none" stroke="#edf8f1" stroke-width="2.5" /><polyline points="2730.0,31122.0 2830,31122.0" fill="none" stroke="#edf8f1" stroke-width="2.5" /><polyline points="2647.5,31097.0 2636.0,31105.0 2630.0,31116.0 2630.0,31128.0 2636.0,31139.0 2647.5,31147.0" fill="none" stroke="#69e69d" stroke-width="2.5" /><polyline points="2712.5,31097.0 2724.0,31105.0 2730.0,31116.0 2730.0,31128.0 2724.0,31139.0 2712.5,31147.0" fill="none" stroke="#69e69d" stroke-width="2.5" /><text x="2656.390625" y="31131.0" fill="#69e69d" font-size="24" font-family="Liberation Mono, monospace">MOV</text><text x="2577.15625" y="31051.0" fill="#edf8f1" font-size="24" font-family="Liberation Mono, monospace">Site.Item.Time</text><text x="2577.15625" y="31081.0" fill="#edf8f1" font-size="24" font-family="Liberation Mono, monospace">StampIn.Second</text><text x="2562.75" y="31180.0" fill="#edf8f1" font-size="24" font-family="Liberation Mono, monospace">Source.Identity.</text><text x="2562.75" y="31210.0" fill="#edf8f1" font-size="24" font-family="Liberation Mono, monospace">LoadStamp[5]</text><text x="2656.40625" y="31246.0" fill="#8da69b" font-size="18" font-family="Liberation Mono, monospace">MOVE</text><polyline points="2830,31122.0 2860,31122.0" fill="none" stroke="#edf8f1" stroke-width="2.5" /><polyline points="2500,31412.0 2530,31412.0" fill="none" stroke="#edf8f1" stroke-width="2.5" /><polyline points="2530,31412.0 2630.0,31412.0" fill="none" stroke="#edf8f1" stroke-width="2.5" /><polyline points="2730.0,31412.0 2830,31412.0" fill="none" stroke="#edf8f1" stroke-width="2.5" /><polyline points="2647.5,31387.0 2636.0,31395.0 2630.0,31406.0 2630.0,31418.0 2636.0,31429.0 2647.5,31437.0" fill="none" stroke="#69e69d" stroke-width="2.5" /><polyline points="2712.5,31387.0 2724.0,31395.0 2730.0,31406.0 2730.0,31418.0 2724.0,31429.0 2712.5,31437.0" fill="none" stroke="#69e69d" stroke-width="2.5" /><text x="2656.390625" y="31421.0" fill="#69e69d" font-size="24" font-family="Liberation Mono, monospace">MOV</text><text x="2577.15625" y="31311.0" fill="#edf8f1" font-size="24" font-family="Liberation Mono, monospace">Site.Item.Time</text><text x="2577.15625" y="31341.0" fill="#edf8f1" font-size="24" font-family="Liberation Mono, monospace">StampIn.</text><text x="2577.15625" y="31371.0" fill="#edf8f1" font-size="24" font-family="Liberation Mono, monospace">Microsecond</text><text x="2562.75" y="31470.0" fill="#edf8f1" font-size="24" font-family="Liberation Mono, monospace">Source.Identity.</text><text x="2562.75" y="31500.0" fill="#edf8f1" font-size="24" font-family="Liberation Mono, monospace">LoadStamp[6]</text><text x="2656.40625" y="31536.0" fill="#8da69b" font-size="18" font-family="Liberation Mono, monospace">MOVE</text><polyline points="2830,31412.0 2860,31412.0" fill="none" stroke="#edf8f1" stroke-width="2.5" /><polyline points="2500,30602.0 2500,31412.0" fill="none" stroke="#edf8f1" stroke-width="2.5" /><polyline points="2860,30602.0 2860,31412.0" fill="none" stroke="#edf8f1" stroke-width="2.5" /><polyline points="2860,30602.0 2900,30602.0" fill="none" stroke="#edf8f1" stroke-width="2.5" /><text x="130" y="31626.0" fill="#8da69b" font-size="24" font-family="Liberation Mono, monospace">ADDED · Removal time is the CDL timer start timestamp.</text><rect x="0" y="0" width="3000" height="64884.0" fill="none" stroke="#8da69b" stroke-width="2" /><rect x="7" y="27825.0" width="5" height="1412.0" fill="#8da69b" stroke="#8da69b" stroke-width="2" /><rect x="7" y="29243.0" width="5" height="1196.0" fill="#8da69b" stroke="#8da69b" stroke-width="2" /><text x="26.78125" y="29473.0" fill="#8da69b" font-size="16" font-family="Liberation Mono, monospace">MAP</text><text x="26.78125" y="29493.0" fill="#8da69b" font-size="16" font-family="Liberation Mono, monospace">BIND</text><rect x="7" y="30445.0" width="5" height="1154" fill="#8da69b" stroke="#8da69b" stroke-width="2" /><text x="26.78125" y="30642.0" fill="#8da69b" font-size="16" font-family="Liberation Mono, monospace">MAP</text><text x="26.78125" y="30662.0" fill="#8da69b" font-size="16" font-family="Liberation Mono, monospace">BIND</text><rect x="7" y="31605.0" width="5" height="1021.0" fill="#8da69b" stroke="#8da69b" stroke-width="2" /></svg>