<?xml version='1.0' encoding='utf-8'?>
<svg xmlns="http://www.w3.org/2000/svg" style="background-color:#ffffff" width="3000" height="1147.0" viewBox="0 10663 3000 1147" role="img"><title>31 · FDC / WH_Channel/Logic</title><rect x="0" y="0" width="3000" height="64884.0" fill="#ffffff" stroke="#ffffff" stroke-width="2" /><polyline points="105,265 105,64809.0" fill="none" stroke="#193b2d" stroke-width="2.5" /><polyline points="2900,265 2900,64809.0" fill="none" stroke="#193b2d" stroke-width="2.5" /><text x="130" y="10687.0" fill="#52685c" font-size="24" font-family="Liberation Mono, monospace">ADDED · Map the existing item identity and accumulated qualifying soak without resetting the legacy timer.</text><rect x="20" y="10811.0" width="52" height="34" fill="#eaf1ec" stroke="#52685c" stroke-width="2" /><text x="29.8203125" y="10834.0" fill="#52685c" font-size="17" font-family="Liberation Sans, Arial, sans-serif">021</text><polyline points="105,10828.0 145,10828.0" fill="none" stroke="#193b2d" stroke-width="2.5" /><polyline points="145,10828.0 255.0,10828.0" fill="none" stroke="#193b2d" stroke-width="2.5" /><polyline points="335.0,10828.0 445,10828.0" fill="none" stroke="#193b2d" stroke-width="2.5" /><polyline points="255.0,10806.0 255.0,10850.0" fill="none" stroke="#193b2d" stroke-width="2.5" /><polyline points="335.0,10806.0 335.0,10850.0" fill="none" stroke="#193b2d" stroke-width="2.5" /><text x="285.796875" y="10837.0" fill="#193b2d" font-size="24" font-family="Liberation Mono, monospace">=</text><text x="256.984375" y="10787.0" fill="#193b2d" font-size="24" font-family="Liberation Mono, monospace">Phase</text><text x="285.796875" y="10886.0" fill="#193b2d" font-size="24" font-family="Liberation Mono, monospace">0</text><text x="282.203125" y="10922.0" fill="#52685c" font-size="18" font-family="Liberation Mono, monospace">EQ</text><polyline points="445,10828.0 555.0,10828.0" fill="none" stroke="#193b2d" stroke-width="2.5" /><polyline points="635.0,10828.0 745,10828.0" fill="none" stroke="#193b2d" stroke-width="2.5" /><polyline points="555.0,10806.0 555.0,10850.0" fill="none" stroke="#193b2d" stroke-width="2.5" /><polyline points="635.0,10806.0 635.0,10850.0" fill="none" stroke="#193b2d" stroke-width="2.5" /><polyline points="581.0,10847.0 609.0,10809.0" fill="none" stroke="#193b2d" stroke-width="2.5" /><text x="477.75" y="10757.0" fill="#1764a6" font-size="24" font-family="Liberation Mono, monospace">Item.Control.sts</text><text x="477.75" y="10787.0" fill="#1764a6" font-size="24" font-family="Liberation Mono, monospace">Empty</text><text x="576.8046875" y="10888.0" fill="#52685c" font-size="18" font-family="Liberation Mono, monospace">XIO</text><polyline points="745,10828.0 855.0,10828.0" fill="none" stroke="#193b2d" stroke-width="2.5" /><polyline points="935.0,10828.0 1045,10828.0" fill="none" stroke="#193b2d" stroke-width="2.5" /><polyline points="855.0,10806.0 855.0,10850.0" fill="none" stroke="#193b2d" stroke-width="2.5" /><polyline points="935.0,10806.0 935.0,10850.0" fill="none" stroke="#193b2d" stroke-width="2.5" /><polyline points="881.0,10847.0 909.0,10809.0" fill="none" stroke="#193b2d" stroke-width="2.5" /><text x="835.375" y="10787.0" fill="#193b2d" font-size="24" font-family="Liberation Mono, monospace">MapOwner</text><text x="876.8046875" y="10888.0" fill="#52685c" font-size="18" font-family="Liberation Mono, monospace">XIO</text><polyline points="1045,10828.0 2500,10828.0" fill="none" stroke="#193b2d" stroke-width="2.5" /><polyline points="2500,10828.0 2530,10828.0" fill="none" stroke="#193b2d" stroke-width="2.5" /><polyline points="2530,10828.0 2630.0,10828.0" fill="none" stroke="#193b2d" stroke-width="2.5" /><polyline points="2730.0,10828.0 2830,10828.0" fill="none" stroke="#193b2d" stroke-width="2.5" /><polyline points="2647.5,10803.0 2636.0,10811.0 2630.0,10822.0 2630.0,10834.0 2636.0,10845.0 2647.5,10853.0" fill="none" stroke="#236940" stroke-width="2.5" /><polyline points="2712.5,10803.0 2724.0,10811.0 2730.0,10822.0 2730.0,10834.0 2724.0,10845.0 2712.5,10853.0" fill="none" stroke="#236940" stroke-width="2.5" /><text x="2656.390625" y="10837.0" fill="#236940" font-size="24" font-family="Liberation Mono, monospace">MOV</text><text x="2548.34375" y="10787.0" fill="#1764a6" font-size="24" font-family="Liberation Mono, monospace">Item.SoakTimer.ACC</text><text x="2555.546875" y="10886.0" fill="#193b2d" font-size="24" font-family="Liberation Mono, monospace">Source.Qualifying</text><text x="2555.546875" y="10916.0" fill="#193b2d" font-size="24" font-family="Liberation Mono, monospace">Ms</text><text x="2656.40625" y="10952.0" fill="#52685c" font-size="18" font-family="Liberation Mono, monospace">MOVE</text><polyline points="2830,10828.0 2860,10828.0" fill="none" stroke="#193b2d" stroke-width="2.5" /><polyline points="2500,11088.0 2530,11088.0" fill="none" stroke="#193b2d" stroke-width="2.5" /><polyline points="2530,11088.0 2630.0,11088.0" fill="none" stroke="#193b2d" stroke-width="2.5" /><polyline points="2730.0,11088.0 2830,11088.0" fill="none" stroke="#193b2d" stroke-width="2.5" /><polyline points="2647.5,11063.0 2636.0,11071.0 2630.0,11082.0 2630.0,11094.0 2636.0,11105.0 2647.5,11113.0" fill="none" stroke="#236940" stroke-width="2.5" /><polyline points="2712.5,11063.0 2724.0,11071.0 2730.0,11082.0 2730.0,11094.0 2724.0,11105.0 2712.5,11113.0" fill="none" stroke="#236940" stroke-width="2.5" /><text x="2656.390625" y="11097.0" fill="#236940" font-size="24" font-family="Liberation Mono, monospace">MOV</text><text x="2555.546875" y="11017.0" fill="#1764a6" font-size="24" font-family="Liberation Mono, monospace">Item.MaxSoak.msec</text><text x="2555.546875" y="11047.0" fill="#1764a6" font-size="24" font-family="Liberation Mono, monospace">Time</text><text x="2548.34375" y="11146.0" fill="#193b2d" font-size="24" font-family="Liberation Mono, monospace">Source.MaximumSoak</text><text x="2548.34375" y="11176.0" fill="#193b2d" font-size="24" font-family="Liberation Mono, monospace">Ms</text><text x="2656.40625" y="11212.0" fill="#52685c" font-size="18" font-family="Liberation Mono, monospace">MOVE</text><polyline points="2830,11088.0 2860,11088.0" fill="none" stroke="#193b2d" stroke-width="2.5" /><polyline points="2500,11318.0 2530,11318.0" fill="none" stroke="#193b2d" stroke-width="2.5" /><polyline points="2530,11318.0 2630.0,11318.0" fill="none" stroke="#193b2d" stroke-width="2.5" /><polyline points="2730.0,11318.0 2830,11318.0" fill="none" stroke="#193b2d" stroke-width="2.5" /><polyline points="2647.5,11293.0 2636.0,11301.0 2630.0,11312.0 2630.0,11324.0 2636.0,11335.0 2647.5,11343.0" fill="none" stroke="#236940" stroke-width="2.5" /><polyline points="2712.5,11293.0 2724.0,11301.0 2730.0,11312.0 2730.0,11324.0 2724.0,11335.0 2712.5,11343.0" fill="none" stroke="#236940" stroke-width="2.5" /><text x="2656.390625" y="11327.0" fill="#236940" font-size="24" font-family="Liberation Mono, monospace">MOV</text><text x="2627.578125" y="11277.0" fill="#193b2d" font-size="24" font-family="Liberation Mono, monospace">Furnace</text><text x="2584.359375" y="11376.0" fill="#193b2d" font-size="24" font-family="Liberation Mono, monospace">Source.Origin</text><text x="2584.359375" y="11406.0" fill="#193b2d" font-size="24" font-family="Liberation Mono, monospace">Furnace</text><text x="2656.40625" y="11442.0" fill="#52685c" font-size="18" font-family="Liberation Mono, monospace">MOVE</text><polyline points="2830,11318.0 2860,11318.0" fill="none" stroke="#193b2d" stroke-width="2.5" /><polyline points="2500,11596.0 2530,11596.0" fill="none" stroke="#193b2d" stroke-width="2.5" /><rect x="2545" y="11483.0" width="270" height="226.0" fill="#ffffff" stroke="#236940" stroke-width="2" /><text x="2560" y="11517.0" fill="#236940" font-size="24" font-family="Liberation Mono, monospace">COP</text><text x="2560" y="11555.0" fill="#1764a6" font-size="24" font-family="Liberation Mono, monospace">1: Item.strSN</text><text x="2560" y="11595.0" fill="#193b2d" font-size="24" font-family="Liberation Mono, monospace">2: Source.</text><text x="2560" y="11625.0" fill="#193b2d" font-size="24" font-family="Liberation Mono, monospace">Identity.SN</text><text x="2560" y="11665.0" fill="#193b2d" font-size="24" font-family="Liberation Mono, monospace">3: 1</text><polyline points="2530,11596.0 2545,11596.0" fill="none" stroke="#193b2d" stroke-width="2.5" /><polyline points="2815,11596.0 2830,11596.0" fill="none" stroke="#193b2d" stroke-width="2.5" /><polyline points="2830,11596.0 2860,11596.0" fill="none" stroke="#193b2d" stroke-width="2.5" /><polyline points="2500,10828.0 2500,11596.0" fill="none" stroke="#193b2d" stroke-width="2.5" /><polyline points="2860,10828.0 2860,11596.0" fill="none" stroke="#193b2d" stroke-width="2.5" /><polyline points="2860,10828.0 2900,10828.0" fill="none" stroke="#193b2d" stroke-width="2.5" /><text x="130" y="11834.0" fill="#52685c" font-size="24" font-family="Liberation Mono, monospace">ADDED · Map the existing item identity and accumulated qualifying soak without resetting the legacy timer.</text><rect x="0" y="0" width="3000" height="64884.0" fill="none" stroke="#52685c" stroke-width="2" /><rect x="7" y="10171.0" width="5" height="489" fill="#236940" stroke="#236940" stroke-width="2" /><rect x="7" y="10666.0" width="5" height="1141.0" fill="#52685c" stroke="#52685c" stroke-width="2" /><text x="7.5625" y="10868.0" fill="#52685c" font-size="16" font-family="Liberation Mono, monospace">MAP</text><text x="7.5625" y="10888.0" fill="#52685c" font-size="16" font-family="Liberation Mono, monospace">IDENTITY</text><rect x="7" y="11813.0" width="5" height="1292.0" fill="#52685c" stroke="#52685c" stroke-width="2" /></svg>