<?xml version='1.0' encoding='utf-8'?>
<svg xmlns="http://www.w3.org/2000/svg" style="background-color:#07110e" width="3000" height="1298.0" viewBox="0 57745 3000 1298" role="img"><title>31 · FDC / WH_Channel/Logic</title><rect x="0" y="0" width="3000" height="64884.0" fill="#07110e" stroke="#07110e" stroke-width="2" /><polyline points="105,265 105,64809.0" fill="none" stroke="#edf8f1" stroke-width="2.5" /><polyline points="2900,265 2900,64809.0" fill="none" stroke="#edf8f1" stroke-width="2.5" /><text x="130" y="57769.0" fill="#8da69b" font-size="24" font-family="Liberation Mono, monospace">ADDED · Publish raw current telemetry, ordered branches 9-12; business rules execute in Ignition.</text><rect x="20" y="57906.0" width="52" height="34" fill="#0d241d" stroke="#69e69d" stroke-width="2" /><text x="29.8203125" y="57929.0" fill="#69e69d" font-size="17" font-family="Liberation Sans, Arial, sans-serif">098</text><polyline points="105,57923.0 145,57923.0" fill="none" stroke="#edf8f1" stroke-width="2.5" /><polyline points="145,57923.0 255.0,57923.0" fill="none" stroke="#edf8f1" stroke-width="2.5" /><polyline points="335.0,57923.0 445,57923.0" fill="none" stroke="#edf8f1" stroke-width="2.5" /><polyline points="255.0,57901.0 255.0,57945.0" fill="none" stroke="#edf8f1" stroke-width="2.5" /><polyline points="335.0,57901.0 335.0,57945.0" fill="none" stroke="#edf8f1" stroke-width="2.5" /><text x="285.796875" y="57932.0" fill="#edf8f1" font-size="24" font-family="Liberation Mono, monospace">=</text><text x="256.984375" y="57882.0" fill="#edf8f1" font-size="24" font-family="Liberation Mono, monospace">Phase</text><text x="285.796875" y="57981.0" fill="#edf8f1" font-size="24" font-family="Liberation Mono, monospace">1</text><text x="282.203125" y="58017.0" fill="#8da69b" font-size="18" font-family="Liberation Mono, monospace">EQ</text><polyline points="445,57923.0 2500,57923.0" fill="none" stroke="#edf8f1" stroke-width="2.5" /><polyline points="2500,57923.0 2530,57923.0" fill="none" stroke="#edf8f1" stroke-width="2.5" /><rect x="2545" y="57810.0" width="270" height="226.0" fill="#07110e" stroke="#69e69d" stroke-width="2" /><text x="2560" y="57844.0" fill="#69e69d" font-size="24" font-family="Liberation Mono, monospace">COP</text><text x="2560" y="57882.0" fill="#71b7ff" font-size="24" font-family="Liberation Mono, monospace">1: Item.strSN</text><text x="2560" y="57922.0" fill="#69e69d" font-size="24" font-family="Liberation Mono, monospace">2: State.Current</text><text x="2560" y="57952.0" fill="#69e69d" font-size="24" font-family="Liberation Mono, monospace">Identity.SN</text><text x="2560" y="57992.0" fill="#edf8f1" font-size="24" font-family="Liberation Mono, monospace">3: 1</text><polyline points="2530,57923.0 2545,57923.0" fill="none" stroke="#edf8f1" stroke-width="2.5" /><polyline points="2815,57923.0 2830,57923.0" fill="none" stroke="#edf8f1" stroke-width="2.5" /><polyline points="2830,57923.0 2860,57923.0" fill="none" stroke="#edf8f1" stroke-width="2.5" /><polyline points="2500,58225.0 2530,58225.0" fill="none" stroke="#edf8f1" stroke-width="2.5" /><rect x="2545" y="58112.0" width="270" height="226.0" fill="#07110e" stroke="#69e69d" stroke-width="2" /><text x="2560" y="58146.0" fill="#69e69d" font-size="24" font-family="Liberation Mono, monospace">COP</text><text x="2560" y="58184.0" fill="#71b7ff" font-size="24" font-family="Liberation Mono, monospace">1: Item.strWO</text><text x="2560" y="58224.0" fill="#69e69d" font-size="24" font-family="Liberation Mono, monospace">2: State.Current</text><text x="2560" y="58254.0" fill="#69e69d" font-size="24" font-family="Liberation Mono, monospace">Identity.WO</text><text x="2560" y="58294.0" fill="#edf8f1" font-size="24" font-family="Liberation Mono, monospace">3: 1</text><polyline points="2530,58225.0 2545,58225.0" fill="none" stroke="#edf8f1" stroke-width="2.5" /><polyline points="2815,58225.0 2830,58225.0" fill="none" stroke="#edf8f1" stroke-width="2.5" /><polyline points="2830,58225.0 2860,58225.0" fill="none" stroke="#edf8f1" stroke-width="2.5" /><polyline points="2500,58527.0 2530,58527.0" fill="none" stroke="#edf8f1" stroke-width="2.5" /><rect x="2545" y="58414.0" width="270" height="226.0" fill="#07110e" stroke="#69e69d" stroke-width="2" /><text x="2560" y="58448.0" fill="#69e69d" font-size="24" font-family="Liberation Mono, monospace">COP</text><text x="2560" y="58486.0" fill="#71b7ff" font-size="24" font-family="Liberation Mono, monospace">1: Item.strPN</text><text x="2560" y="58526.0" fill="#69e69d" font-size="24" font-family="Liberation Mono, monospace">2: State.Current</text><text x="2560" y="58556.0" fill="#69e69d" font-size="24" font-family="Liberation Mono, monospace">Identity.PN</text><text x="2560" y="58596.0" fill="#edf8f1" font-size="24" font-family="Liberation Mono, monospace">3: 1</text><polyline points="2530,58527.0 2545,58527.0" fill="none" stroke="#edf8f1" stroke-width="2.5" /><polyline points="2815,58527.0 2830,58527.0" fill="none" stroke="#edf8f1" stroke-width="2.5" /><polyline points="2830,58527.0 2860,58527.0" fill="none" stroke="#edf8f1" stroke-width="2.5" /><polyline points="2500,58829.0 2530,58829.0" fill="none" stroke="#edf8f1" stroke-width="2.5" /><rect x="2545" y="58716.0" width="270" height="226.0" fill="#07110e" stroke="#69e69d" stroke-width="2" /><text x="2560" y="58750.0" fill="#69e69d" font-size="24" font-family="Liberation Mono, monospace">COP</text><text x="2560" y="58788.0" fill="#71b7ff" font-size="24" font-family="Liberation Mono, monospace">1: Item.strStg</text><text x="2560" y="58828.0" fill="#69e69d" font-size="24" font-family="Liberation Mono, monospace">2: State.Current</text><text x="2560" y="58858.0" fill="#69e69d" font-size="24" font-family="Liberation Mono, monospace">Identity.Stage</text><text x="2560" y="58898.0" fill="#edf8f1" font-size="24" font-family="Liberation Mono, monospace">3: 1</text><polyline points="2530,58829.0 2545,58829.0" fill="none" stroke="#edf8f1" stroke-width="2.5" /><polyline points="2815,58829.0 2830,58829.0" fill="none" stroke="#edf8f1" stroke-width="2.5" /><polyline points="2830,58829.0 2860,58829.0" fill="none" stroke="#edf8f1" stroke-width="2.5" /><polyline points="2500,57923.0 2500,58829.0" fill="none" stroke="#edf8f1" stroke-width="2.5" /><polyline points="2860,57923.0 2860,58829.0" fill="none" stroke="#edf8f1" stroke-width="2.5" /><polyline points="2860,57923.0 2900,57923.0" fill="none" stroke="#edf8f1" stroke-width="2.5" /><text x="130" y="59067.0" fill="#8da69b" font-size="24" font-family="Liberation Mono, monospace">ADDED · Publish raw current telemetry, ordered branches 13-16; business rules execute in Ignition.</text><rect x="0" y="0" width="3000" height="64884.0" fill="none" stroke="#8da69b" stroke-width="2" /><rect x="7" y="56606.0" width="5" height="1136.0" fill="#69e69d" stroke="#69e69d" stroke-width="2" /><rect x="7" y="57748.0" width="5" height="1292.0" fill="#69e69d" stroke="#69e69d" stroke-width="2" /><text x="21.9765625" y="57963.0" fill="#69e69d" font-size="16" font-family="Liberation Mono, monospace">VIEW</text><text x="21.9765625" y="57983.0" fill="#69e69d" font-size="16" font-family="Liberation Mono, monospace">TELEM</text><rect x="7" y="59046.0" width="5" height="1340.0" fill="#69e69d" stroke="#69e69d" stroke-width="2" /></svg>