<?xml version='1.0' encoding='utf-8'?>
<svg xmlns="http://www.w3.org/2000/svg" style="background-color:#07110e" width="3000" height="2173.0" viewBox="0 265 3000 2173" role="img"><title>34 · FDC / MainProgram/WH_Startup</title><rect x="0" y="0" width="3000" height="2438.0" fill="#07110e" stroke="#07110e" stroke-width="2" /><polyline points="105,265 105,2363.0" fill="none" stroke="#edf8f1" stroke-width="2.5" /><polyline points="2900,265 2900,2363.0" fill="none" stroke="#edf8f1" stroke-width="2.5" /><text x="130" y="289.0" fill="#8da69b" font-size="24" font-family="Liberation Mono, monospace">ADDED · INIT constants: signed DINT maximum and maximum minus one. Ordered branches initialize the controller-wide software constants before any consumer.</text><rect x="20" y="378" width="52" height="34" fill="#0d241d" stroke="#c4a7ff" stroke-width="2" /><text x="29.8203125" y="401.0" fill="#c4a7ff" font-size="17" font-family="Liberation Sans, Arial, sans-serif">000</text><polyline points="105,395 145,395" fill="none" stroke="#edf8f1" stroke-width="2.5" /><polyline points="145,395 2500,395" fill="none" stroke="#edf8f1" stroke-width="2.5" /><polyline points="2500,395 2530,395" fill="none" stroke="#edf8f1" stroke-width="2.5" /><polyline points="2530,395 2630.0,395" fill="none" stroke="#edf8f1" stroke-width="2.5" /><polyline points="2730.0,395 2830,395" fill="none" stroke="#edf8f1" stroke-width="2.5" /><polyline points="2647.5,370 2636.0,378 2630.0,389 2630.0,401 2636.0,412 2647.5,420" fill="none" stroke="#69e69d" stroke-width="2.5" /><polyline points="2712.5,370 2724.0,378 2730.0,389 2730.0,401 2724.0,412 2712.5,420" fill="none" stroke="#69e69d" stroke-width="2.5" /><text x="2656.390625" y="404.0" fill="#69e69d" font-size="24" font-family="Liberation Mono, monospace">MOV</text><text x="2605.96875" y="354.0" fill="#edf8f1" font-size="24" font-family="Liberation Mono, monospace">2147483647</text><text x="2627.578125" y="453.0" fill="#c4a7ff" font-size="24" font-family="Liberation Mono, monospace">MAX_INT</text><text x="2656.40625" y="489.0" fill="#8da69b" font-size="18" font-family="Liberation Mono, monospace">MOVE</text><polyline points="2830,395 2860,395" fill="none" stroke="#edf8f1" stroke-width="2.5" /><polyline points="2500,595 2530,595" fill="none" stroke="#edf8f1" stroke-width="2.5" /><polyline points="2530,595 2630.0,595" fill="none" stroke="#edf8f1" stroke-width="2.5" /><polyline points="2730.0,595 2830,595" fill="none" stroke="#edf8f1" stroke-width="2.5" /><polyline points="2647.5,570 2636.0,578 2630.0,589 2630.0,601 2636.0,612 2647.5,620" fill="none" stroke="#69e69d" stroke-width="2.5" /><polyline points="2712.5,570 2724.0,578 2730.0,589 2730.0,601 2724.0,612 2712.5,620" fill="none" stroke="#69e69d" stroke-width="2.5" /><text x="2670.796875" y="604.0" fill="#69e69d" font-size="24" font-family="Liberation Mono, monospace">−</text><text x="2627.578125" y="554.0" fill="#c4a7ff" font-size="24" font-family="Liberation Mono, monospace">MAX_INT</text><text x="2656.390625" y="653.0" fill="#edf8f1" font-size="24" font-family="Liberation Mono, monospace">− 1</text><polyline points="2550.0,669 2810.0,669" fill="none" stroke="#edf8f1" stroke-width="2.5" /><text x="2555.546875" y="703.0" fill="#c4a7ff" font-size="24" font-family="Liberation Mono, monospace">MAX_INT_MINUS_ONE</text><text x="2661.8046875" y="737.0" fill="#8da69b" font-size="18" font-family="Liberation Mono, monospace">SUB</text><polyline points="2830,595 2860,595" fill="none" stroke="#edf8f1" stroke-width="2.5" /><polyline points="2500,395 2500,595" fill="none" stroke="#edf8f1" stroke-width="2.5" /><polyline points="2860,395 2860,595" fill="none" stroke="#edf8f1" stroke-width="2.5" /><polyline points="2860,395 2900,395" fill="none" stroke="#edf8f1" stroke-width="2.5" /><text x="130" y="834.0" fill="#8da69b" font-size="24" font-family="Liberation Mono, monospace">ADDED · Increment the development boot epoch once on S:FS; saturated counters cannot rearm.</text><rect x="20" y="923" width="52" height="34" fill="#0d241d" stroke="#ffc35a" stroke-width="2" /><text x="29.8203125" y="946.0" fill="#ffc35a" font-size="17" font-family="Liberation Sans, Arial, sans-serif">001</text><polyline points="105,940 145,940" fill="none" stroke="#edf8f1" stroke-width="2.5" /><polyline points="145,940 255.0,940" fill="none" stroke="#edf8f1" stroke-width="2.5" /><polyline points="335.0,940 445,940" fill="none" stroke="#edf8f1" stroke-width="2.5" /><polyline points="255.0,918 255.0,962" fill="none" stroke="#edf8f1" stroke-width="2.5" /><polyline points="335.0,918 335.0,962" fill="none" stroke="#edf8f1" stroke-width="2.5" /><text x="285.796875" y="949.0" fill="#edf8f1" font-size="24" font-family="Liberation Mono, monospace">&lt;</text><text x="177.75" y="899.0" fill="#edf8f1" font-size="24" font-family="Liberation Mono, monospace">WH_Settings.Boot</text><text x="242.578125" y="998.0" fill="#c4a7ff" font-size="24" font-family="Liberation Mono, monospace">MAX_INT</text><text x="282.203125" y="1034.0" fill="#8da69b" font-size="18" font-family="Liberation Mono, monospace">LT</text><polyline points="445,940 2560,940" fill="none" stroke="#edf8f1" stroke-width="2.5" /><polyline points="2560,940 2660.0,940" fill="none" stroke="#edf8f1" stroke-width="2.5" /><polyline points="2760.0,940 2860,940" fill="none" stroke="#edf8f1" stroke-width="2.5" /><polyline points="2677.5,915 2666.0,923 2660.0,934 2660.0,946 2666.0,957 2677.5,965" fill="none" stroke="#69e69d" stroke-width="2.5" /><polyline points="2742.5,915 2754.0,923 2760.0,934 2760.0,946 2754.0,957 2742.5,965" fill="none" stroke="#69e69d" stroke-width="2.5" /><text x="2700.796875" y="949.0" fill="#69e69d" font-size="24" font-family="Liberation Mono, monospace">+</text><text x="2592.75" y="899.0" fill="#edf8f1" font-size="24" font-family="Liberation Mono, monospace">WH_Settings.Boot</text><text x="2686.390625" y="998.0" fill="#edf8f1" font-size="24" font-family="Liberation Mono, monospace">+ 1</text><polyline points="2580.0,1014 2840.0,1014" fill="none" stroke="#edf8f1" stroke-width="2.5" /><text x="2592.75" y="1048.0" fill="#edf8f1" font-size="24" font-family="Liberation Mono, monospace">WH_Settings.Boot</text><text x="2691.8046875" y="1082.0" fill="#8da69b" font-size="18" font-family="Liberation Mono, monospace">ADD</text><polyline points="2860,940 2900,940" fill="none" stroke="#edf8f1" stroke-width="2.5" /><text x="130" y="1179.0" fill="#8da69b" font-size="24" font-family="Liberation Mono, monospace">ADDED · Reset local correlation on the new epoch; retained network buffers cannot replay events.</text><rect x="20" y="1301.0" width="52" height="34" fill="#0d241d" stroke="#ffc35a" stroke-width="2" /><text x="29.8203125" y="1324.0" fill="#ffc35a" font-size="17" font-family="Liberation Sans, Arial, sans-serif">002</text><polyline points="105,1318.0 145,1318.0" fill="none" stroke="#edf8f1" stroke-width="2.5" /><polyline points="145,1318.0 2500,1318.0" fill="none" stroke="#edf8f1" stroke-width="2.5" /><polyline points="2500,1318.0 2530,1318.0" fill="none" stroke="#edf8f1" stroke-width="2.5" /><rect x="2545" y="1220.0" width="270" height="196.0" fill="#07110e" stroke="#69e69d" stroke-width="2" /><text x="2560" y="1254.0" fill="#69e69d" font-size="24" font-family="Liberation Mono, monospace">FLL</text><text x="2560" y="1292.0" fill="#edf8f1" font-size="24" font-family="Liberation Mono, monospace">1: 0</text><text x="2560" y="1332.0" fill="#edf8f1" font-size="24" font-family="Liberation Mono, monospace">2: WH_Site</text><text x="2560" y="1372.0" fill="#edf8f1" font-size="24" font-family="Liberation Mono, monospace">3: 1</text><polyline points="2530,1318.0 2545,1318.0" fill="none" stroke="#edf8f1" stroke-width="2.5" /><polyline points="2815,1318.0 2830,1318.0" fill="none" stroke="#edf8f1" stroke-width="2.5" /><polyline points="2830,1318.0 2860,1318.0" fill="none" stroke="#edf8f1" stroke-width="2.5" /><polyline points="2500,1590.0 2530,1590.0" fill="none" stroke="#edf8f1" stroke-width="2.5" /><rect x="2545" y="1492.0" width="270" height="196.0" fill="#07110e" stroke="#69e69d" stroke-width="2" /><text x="2560" y="1526.0" fill="#69e69d" font-size="24" font-family="Liberation Mono, monospace">FLL</text><text x="2560" y="1564.0" fill="#edf8f1" font-size="24" font-family="Liberation Mono, monospace">1: 0</text><text x="2560" y="1604.0" fill="#edf8f1" font-size="24" font-family="Liberation Mono, monospace">2: WH_Source[0]</text><text x="2560" y="1644.0" fill="#edf8f1" font-size="24" font-family="Liberation Mono, monospace">3: 192</text><polyline points="2530,1590.0 2545,1590.0" fill="none" stroke="#edf8f1" stroke-width="2.5" /><polyline points="2815,1590.0 2830,1590.0" fill="none" stroke="#edf8f1" stroke-width="2.5" /><polyline points="2830,1590.0 2860,1590.0" fill="none" stroke="#edf8f1" stroke-width="2.5" /><polyline points="2500,1877.0 2530,1877.0" fill="none" stroke="#edf8f1" stroke-width="2.5" /><rect x="2545" y="1764.0" width="270" height="226.0" fill="#07110e" stroke="#69e69d" stroke-width="2" /><text x="2560" y="1798.0" fill="#69e69d" font-size="24" font-family="Liberation Mono, monospace">FLL</text><text x="2560" y="1836.0" fill="#edf8f1" font-size="24" font-family="Liberation Mono, monospace">1: 0</text><text x="2560" y="1876.0" fill="#edf8f1" font-size="24" font-family="Liberation Mono, monospace">2: WH_Link</text><text x="2560" y="1906.0" fill="#edf8f1" font-size="24" font-family="Liberation Mono, monospace">State[0]</text><text x="2560" y="1946.0" fill="#edf8f1" font-size="24" font-family="Liberation Mono, monospace">3: 3</text><polyline points="2530,1877.0 2545,1877.0" fill="none" stroke="#edf8f1" stroke-width="2.5" /><polyline points="2815,1877.0 2830,1877.0" fill="none" stroke="#edf8f1" stroke-width="2.5" /><polyline points="2830,1877.0 2860,1877.0" fill="none" stroke="#edf8f1" stroke-width="2.5" /><polyline points="2500,2179.0 2530,2179.0" fill="none" stroke="#edf8f1" stroke-width="2.5" /><rect x="2545" y="2066.0" width="270" height="226.0" fill="#07110e" stroke="#69e69d" stroke-width="2" /><text x="2560" y="2100.0" fill="#69e69d" font-size="24" font-family="Liberation Mono, monospace">FLL</text><text x="2560" y="2138.0" fill="#edf8f1" font-size="24" font-family="Liberation Mono, monospace">1: 0</text><text x="2560" y="2178.0" fill="#69e69d" font-size="24" font-family="Liberation Mono, monospace">2: WH_Transfer</text><text x="2560" y="2208.0" fill="#69e69d" font-size="24" font-family="Liberation Mono, monospace">Limit[0]</text><text x="2560" y="2248.0" fill="#edf8f1" font-size="24" font-family="Liberation Mono, monospace">3: 192</text><polyline points="2530,2179.0 2545,2179.0" fill="none" stroke="#edf8f1" stroke-width="2.5" /><polyline points="2815,2179.0 2830,2179.0" fill="none" stroke="#edf8f1" stroke-width="2.5" /><polyline points="2830,2179.0 2860,2179.0" fill="none" stroke="#edf8f1" stroke-width="2.5" /><polyline points="2500,1318.0 2500,2179.0" fill="none" stroke="#edf8f1" stroke-width="2.5" /><polyline points="2860,1318.0 2860,2179.0" fill="none" stroke="#edf8f1" stroke-width="2.5" /><polyline points="2860,1318.0 2900,1318.0" fill="none" stroke="#edf8f1" stroke-width="2.5" /><rect x="0" y="0" width="3000" height="2438.0" fill="none" stroke="#8da69b" stroke-width="2" /><rect x="7" y="268" width="5" height="539" fill="#c4a7ff" stroke="#c4a7ff" stroke-width="2" /><text x="21.9765625" y="435.0" fill="#c4a7ff" font-size="16" font-family="Liberation Mono, monospace">CONST</text><text x="21.9765625" y="455.0" fill="#c4a7ff" font-size="16" font-family="Liberation Mono, monospace">INIT</text><rect x="7" y="813" width="5" height="339" fill="#ffc35a" stroke="#ffc35a" stroke-width="2" /><text x="21.9765625" y="980.0" fill="#ffc35a" font-size="16" font-family="Liberation Mono, monospace">STATE</text><text x="21.9765625" y="1000.0" fill="#ffc35a" font-size="16" font-family="Liberation Mono, monospace">INIT</text><rect x="7" y="1158" width="5" height="1232.0" fill="#ffc35a" stroke="#ffc35a" stroke-width="2" /><text x="21.9765625" y="1358.0" fill="#ffc35a" font-size="16" font-family="Liberation Mono, monospace">STATE</text><text x="21.9765625" y="1378.0" fill="#ffc35a" font-size="16" font-family="Liberation Mono, monospace">INIT</text></svg>