<?xml version='1.0' encoding='utf-8'?>
<svg xmlns="http://www.w3.org/2000/svg" style="background-color:#07110e" width="3000" height="2390.0" viewBox="0 14382 3000 2390" role="img"><title>31 · FDC / WH_Channel/Logic</title><rect x="0" y="0" width="3000" height="64884.0" fill="#07110e" stroke="#07110e" stroke-width="2" /><polyline points="105,265 105,64809.0" fill="none" stroke="#edf8f1" stroke-width="2.5" /><polyline points="2900,265 2900,64809.0" fill="none" stroke="#edf8f1" stroke-width="2.5" /><text x="130" y="14406.0" fill="#8da69b" font-size="24" font-family="Liberation Mono, monospace">ADDED · Map the existing item identity and accumulated qualifying soak without resetting the legacy timer.</text><rect x="20" y="14530.0" width="52" height="34" fill="#0d241d" stroke="#8da69b" stroke-width="2" /><text x="29.8203125" y="14553.0" fill="#8da69b" font-size="17" font-family="Liberation Sans, Arial, sans-serif">024</text><polyline points="105,14547.0 145,14547.0" fill="none" stroke="#edf8f1" stroke-width="2.5" /><polyline points="145,14547.0 255.0,14547.0" fill="none" stroke="#edf8f1" stroke-width="2.5" /><polyline points="335.0,14547.0 445,14547.0" fill="none" stroke="#edf8f1" stroke-width="2.5" /><polyline points="255.0,14525.0 255.0,14569.0" fill="none" stroke="#edf8f1" stroke-width="2.5" /><polyline points="335.0,14525.0 335.0,14569.0" fill="none" stroke="#edf8f1" stroke-width="2.5" /><text x="285.796875" y="14556.0" fill="#edf8f1" font-size="24" font-family="Liberation Mono, monospace">=</text><text x="256.984375" y="14506.0" fill="#edf8f1" font-size="24" font-family="Liberation Mono, monospace">Phase</text><text x="285.796875" y="14605.0" fill="#edf8f1" font-size="24" font-family="Liberation Mono, monospace">0</text><text x="282.203125" y="14641.0" fill="#8da69b" font-size="18" font-family="Liberation Mono, monospace">EQ</text><polyline points="445,14547.0 555.0,14547.0" fill="none" stroke="#edf8f1" stroke-width="2.5" /><polyline points="635.0,14547.0 745,14547.0" fill="none" stroke="#edf8f1" stroke-width="2.5" /><polyline points="555.0,14525.0 555.0,14569.0" fill="none" stroke="#edf8f1" stroke-width="2.5" /><polyline points="635.0,14525.0 635.0,14569.0" fill="none" stroke="#edf8f1" stroke-width="2.5" /><polyline points="581.0,14566.0 609.0,14528.0" fill="none" stroke="#edf8f1" stroke-width="2.5" /><text x="477.75" y="14476.0" fill="#71b7ff" font-size="24" font-family="Liberation Mono, monospace">Item.Control.sts</text><text x="477.75" y="14506.0" fill="#71b7ff" font-size="24" font-family="Liberation Mono, monospace">Empty</text><text x="576.8046875" y="14607.0" fill="#8da69b" font-size="18" font-family="Liberation Mono, monospace">XIO</text><polyline points="745,14547.0 855.0,14547.0" fill="none" stroke="#edf8f1" stroke-width="2.5" /><polyline points="935.0,14547.0 1045,14547.0" fill="none" stroke="#edf8f1" stroke-width="2.5" /><polyline points="855.0,14525.0 855.0,14569.0" fill="none" stroke="#edf8f1" stroke-width="2.5" /><polyline points="935.0,14525.0 935.0,14569.0" fill="none" stroke="#edf8f1" stroke-width="2.5" /><polyline points="881.0,14566.0 909.0,14528.0" fill="none" stroke="#edf8f1" stroke-width="2.5" /><text x="835.375" y="14506.0" fill="#edf8f1" font-size="24" font-family="Liberation Mono, monospace">MapOwner</text><text x="876.8046875" y="14607.0" fill="#8da69b" font-size="18" font-family="Liberation Mono, monospace">XIO</text><polyline points="1045,14547.0 2500,14547.0" fill="none" stroke="#edf8f1" stroke-width="2.5" /><polyline points="2500,14547.0 2530,14547.0" fill="none" stroke="#edf8f1" stroke-width="2.5" /><polyline points="2530,14547.0 2630.0,14547.0" fill="none" stroke="#edf8f1" stroke-width="2.5" /><polyline points="2730.0,14547.0 2830,14547.0" fill="none" stroke="#edf8f1" stroke-width="2.5" /><polyline points="2647.5,14522.0 2636.0,14530.0 2630.0,14541.0 2630.0,14553.0 2636.0,14564.0 2647.5,14572.0" fill="none" stroke="#69e69d" stroke-width="2.5" /><polyline points="2712.5,14522.0 2724.0,14530.0 2730.0,14541.0 2730.0,14553.0 2724.0,14564.0 2712.5,14572.0" fill="none" stroke="#69e69d" stroke-width="2.5" /><text x="2656.390625" y="14556.0" fill="#69e69d" font-size="24" font-family="Liberation Mono, monospace">MOV</text><text x="2555.546875" y="14476.0" fill="#71b7ff" font-size="24" font-family="Liberation Mono, monospace">Item.TimeStampIn.</text><text x="2555.546875" y="14506.0" fill="#71b7ff" font-size="24" font-family="Liberation Mono, monospace">Day</text><text x="2562.75" y="14605.0" fill="#edf8f1" font-size="24" font-family="Liberation Mono, monospace">Source.Identity.</text><text x="2562.75" y="14635.0" fill="#edf8f1" font-size="24" font-family="Liberation Mono, monospace">LoadStamp[2]</text><text x="2656.40625" y="14671.0" fill="#8da69b" font-size="18" font-family="Liberation Mono, monospace">MOVE</text><polyline points="2830,14547.0 2860,14547.0" fill="none" stroke="#edf8f1" stroke-width="2.5" /><polyline points="2500,14807.0 2530,14807.0" fill="none" stroke="#edf8f1" stroke-width="2.5" /><polyline points="2530,14807.0 2630.0,14807.0" fill="none" stroke="#edf8f1" stroke-width="2.5" /><polyline points="2730.0,14807.0 2830,14807.0" fill="none" stroke="#edf8f1" stroke-width="2.5" /><polyline points="2647.5,14782.0 2636.0,14790.0 2630.0,14801.0 2630.0,14813.0 2636.0,14824.0 2647.5,14832.0" fill="none" stroke="#69e69d" stroke-width="2.5" /><polyline points="2712.5,14782.0 2724.0,14790.0 2730.0,14801.0 2730.0,14813.0 2724.0,14824.0 2712.5,14832.0" fill="none" stroke="#69e69d" stroke-width="2.5" /><text x="2656.390625" y="14816.0" fill="#69e69d" font-size="24" font-family="Liberation Mono, monospace">MOV</text><text x="2555.546875" y="14736.0" fill="#71b7ff" font-size="24" font-family="Liberation Mono, monospace">Item.TimeStampIn.</text><text x="2555.546875" y="14766.0" fill="#71b7ff" font-size="24" font-family="Liberation Mono, monospace">Hour</text><text x="2562.75" y="14865.0" fill="#edf8f1" font-size="24" font-family="Liberation Mono, monospace">Source.Identity.</text><text x="2562.75" y="14895.0" fill="#edf8f1" font-size="24" font-family="Liberation Mono, monospace">LoadStamp[3]</text><text x="2656.40625" y="14931.0" fill="#8da69b" font-size="18" font-family="Liberation Mono, monospace">MOVE</text><polyline points="2830,14807.0 2860,14807.0" fill="none" stroke="#edf8f1" stroke-width="2.5" /><polyline points="2500,15067.0 2530,15067.0" fill="none" stroke="#edf8f1" stroke-width="2.5" /><polyline points="2530,15067.0 2630.0,15067.0" fill="none" stroke="#edf8f1" stroke-width="2.5" /><polyline points="2730.0,15067.0 2830,15067.0" fill="none" stroke="#edf8f1" stroke-width="2.5" /><polyline points="2647.5,15042.0 2636.0,15050.0 2630.0,15061.0 2630.0,15073.0 2636.0,15084.0 2647.5,15092.0" fill="none" stroke="#69e69d" stroke-width="2.5" /><polyline points="2712.5,15042.0 2724.0,15050.0 2730.0,15061.0 2730.0,15073.0 2724.0,15084.0 2712.5,15092.0" fill="none" stroke="#69e69d" stroke-width="2.5" /><text x="2656.390625" y="15076.0" fill="#69e69d" font-size="24" font-family="Liberation Mono, monospace">MOV</text><text x="2555.546875" y="14996.0" fill="#71b7ff" font-size="24" font-family="Liberation Mono, monospace">Item.TimeStampIn.</text><text x="2555.546875" y="15026.0" fill="#71b7ff" font-size="24" font-family="Liberation Mono, monospace">Minute</text><text x="2562.75" y="15125.0" fill="#edf8f1" font-size="24" font-family="Liberation Mono, monospace">Source.Identity.</text><text x="2562.75" y="15155.0" fill="#edf8f1" font-size="24" font-family="Liberation Mono, monospace">LoadStamp[4]</text><text x="2656.40625" y="15191.0" fill="#8da69b" font-size="18" font-family="Liberation Mono, monospace">MOVE</text><polyline points="2830,15067.0 2860,15067.0" fill="none" stroke="#edf8f1" stroke-width="2.5" /><polyline points="2500,15327.0 2530,15327.0" fill="none" stroke="#edf8f1" stroke-width="2.5" /><polyline points="2530,15327.0 2630.0,15327.0" fill="none" stroke="#edf8f1" stroke-width="2.5" /><polyline points="2730.0,15327.0 2830,15327.0" fill="none" stroke="#edf8f1" stroke-width="2.5" /><polyline points="2647.5,15302.0 2636.0,15310.0 2630.0,15321.0 2630.0,15333.0 2636.0,15344.0 2647.5,15352.0" fill="none" stroke="#69e69d" stroke-width="2.5" /><polyline points="2712.5,15302.0 2724.0,15310.0 2730.0,15321.0 2730.0,15333.0 2724.0,15344.0 2712.5,15352.0" fill="none" stroke="#69e69d" stroke-width="2.5" /><text x="2656.390625" y="15336.0" fill="#69e69d" font-size="24" font-family="Liberation Mono, monospace">MOV</text><text x="2555.546875" y="15256.0" fill="#71b7ff" font-size="24" font-family="Liberation Mono, monospace">Item.TimeStampIn.</text><text x="2555.546875" y="15286.0" fill="#71b7ff" font-size="24" font-family="Liberation Mono, monospace">Second</text><text x="2562.75" y="15385.0" fill="#edf8f1" font-size="24" font-family="Liberation Mono, monospace">Source.Identity.</text><text x="2562.75" y="15415.0" fill="#edf8f1" font-size="24" font-family="Liberation Mono, monospace">LoadStamp[5]</text><text x="2656.40625" y="15451.0" fill="#8da69b" font-size="18" font-family="Liberation Mono, monospace">MOVE</text><polyline points="2830,15327.0 2860,15327.0" fill="none" stroke="#edf8f1" stroke-width="2.5" /><polyline points="2500,14547.0 2500,15327.0" fill="none" stroke="#edf8f1" stroke-width="2.5" /><polyline points="2860,14547.0 2860,15327.0" fill="none" stroke="#edf8f1" stroke-width="2.5" /><polyline points="2860,14547.0 2900,14547.0" fill="none" stroke="#edf8f1" stroke-width="2.5" /><text x="130" y="15541.0" fill="#8da69b" font-size="24" font-family="Liberation Mono, monospace">ADDED · Map the existing item identity and accumulated qualifying soak without resetting the legacy timer.</text><rect x="20" y="15665.0" width="52" height="34" fill="#0d241d" stroke="#8da69b" stroke-width="2" /><text x="29.8203125" y="15688.0" fill="#8da69b" font-size="17" font-family="Liberation Sans, Arial, sans-serif">025</text><polyline points="105,15682.0 145,15682.0" fill="none" stroke="#edf8f1" stroke-width="2.5" /><polyline points="145,15682.0 255.0,15682.0" fill="none" stroke="#edf8f1" stroke-width="2.5" /><polyline points="335.0,15682.0 445,15682.0" fill="none" stroke="#edf8f1" stroke-width="2.5" /><polyline points="255.0,15660.0 255.0,15704.0" fill="none" stroke="#edf8f1" stroke-width="2.5" /><polyline points="335.0,15660.0 335.0,15704.0" fill="none" stroke="#edf8f1" stroke-width="2.5" /><text x="285.796875" y="15691.0" fill="#edf8f1" font-size="24" font-family="Liberation Mono, monospace">=</text><text x="256.984375" y="15641.0" fill="#edf8f1" font-size="24" font-family="Liberation Mono, monospace">Phase</text><text x="285.796875" y="15740.0" fill="#edf8f1" font-size="24" font-family="Liberation Mono, monospace">0</text><text x="282.203125" y="15776.0" fill="#8da69b" font-size="18" font-family="Liberation Mono, monospace">EQ</text><polyline points="445,15682.0 555.0,15682.0" fill="none" stroke="#edf8f1" stroke-width="2.5" /><polyline points="635.0,15682.0 745,15682.0" fill="none" stroke="#edf8f1" stroke-width="2.5" /><polyline points="555.0,15660.0 555.0,15704.0" fill="none" stroke="#edf8f1" stroke-width="2.5" /><polyline points="635.0,15660.0 635.0,15704.0" fill="none" stroke="#edf8f1" stroke-width="2.5" /><polyline points="581.0,15701.0 609.0,15663.0" fill="none" stroke="#edf8f1" stroke-width="2.5" /><text x="477.75" y="15611.0" fill="#71b7ff" font-size="24" font-family="Liberation Mono, monospace">Item.Control.sts</text><text x="477.75" y="15641.0" fill="#71b7ff" font-size="24" font-family="Liberation Mono, monospace">Empty</text><text x="576.8046875" y="15742.0" fill="#8da69b" font-size="18" font-family="Liberation Mono, monospace">XIO</text><polyline points="745,15682.0 855.0,15682.0" fill="none" stroke="#edf8f1" stroke-width="2.5" /><polyline points="935.0,15682.0 1045,15682.0" fill="none" stroke="#edf8f1" stroke-width="2.5" /><polyline points="855.0,15660.0 855.0,15704.0" fill="none" stroke="#edf8f1" stroke-width="2.5" /><polyline points="935.0,15660.0 935.0,15704.0" fill="none" stroke="#edf8f1" stroke-width="2.5" /><polyline points="881.0,15701.0 909.0,15663.0" fill="none" stroke="#edf8f1" stroke-width="2.5" /><text x="835.375" y="15641.0" fill="#edf8f1" font-size="24" font-family="Liberation Mono, monospace">MapOwner</text><text x="876.8046875" y="15742.0" fill="#8da69b" font-size="18" font-family="Liberation Mono, monospace">XIO</text><polyline points="1045,15682.0 2560,15682.0" fill="none" stroke="#edf8f1" stroke-width="2.5" /><polyline points="2560,15682.0 2660.0,15682.0" fill="none" stroke="#edf8f1" stroke-width="2.5" /><polyline points="2760.0,15682.0 2860,15682.0" fill="none" stroke="#edf8f1" stroke-width="2.5" /><polyline points="2677.5,15657.0 2666.0,15665.0 2660.0,15676.0 2660.0,15688.0 2666.0,15699.0 2677.5,15707.0" fill="none" stroke="#69e69d" stroke-width="2.5" /><polyline points="2742.5,15657.0 2754.0,15665.0 2760.0,15676.0 2760.0,15688.0 2754.0,15699.0 2742.5,15707.0" fill="none" stroke="#69e69d" stroke-width="2.5" /><text x="2686.390625" y="15691.0" fill="#69e69d" font-size="24" font-family="Liberation Mono, monospace">MOV</text><text x="2585.546875" y="15611.0" fill="#71b7ff" font-size="24" font-family="Liberation Mono, monospace">Item.TimeStampIn.</text><text x="2585.546875" y="15641.0" fill="#71b7ff" font-size="24" font-family="Liberation Mono, monospace">Microsecond</text><text x="2592.75" y="15740.0" fill="#edf8f1" font-size="24" font-family="Liberation Mono, monospace">Source.Identity.</text><text x="2592.75" y="15770.0" fill="#edf8f1" font-size="24" font-family="Liberation Mono, monospace">LoadStamp[6]</text><text x="2686.40625" y="15806.0" fill="#8da69b" font-size="18" font-family="Liberation Mono, monospace">MOVE</text><polyline points="2860,15682.0 2900,15682.0" fill="none" stroke="#edf8f1" stroke-width="2.5" /><text x="130" y="15896.0" fill="#8da69b" font-size="24" font-family="Liberation Mono, monospace">ADDED · Recalculate live source quality every Pre scan.</text><rect x="20" y="15985.0" width="52" height="34" fill="#0d241d" stroke="#8da69b" stroke-width="2" /><text x="29.8203125" y="16008.0" fill="#8da69b" font-size="17" font-family="Liberation Sans, Arial, sans-serif">026</text><polyline points="105,16002.0 145,16002.0" fill="none" stroke="#edf8f1" stroke-width="2.5" /><polyline points="145,16002.0 255.0,16002.0" fill="none" stroke="#edf8f1" stroke-width="2.5" /><polyline points="335.0,16002.0 445,16002.0" fill="none" stroke="#edf8f1" stroke-width="2.5" /><polyline points="255.0,15980.0 255.0,16024.0" fill="none" stroke="#edf8f1" stroke-width="2.5" /><polyline points="335.0,15980.0 335.0,16024.0" fill="none" stroke="#edf8f1" stroke-width="2.5" /><text x="285.796875" y="16011.0" fill="#edf8f1" font-size="24" font-family="Liberation Mono, monospace">=</text><text x="256.984375" y="15961.0" fill="#edf8f1" font-size="24" font-family="Liberation Mono, monospace">Phase</text><text x="285.796875" y="16060.0" fill="#edf8f1" font-size="24" font-family="Liberation Mono, monospace">0</text><text x="282.203125" y="16096.0" fill="#8da69b" font-size="18" font-family="Liberation Mono, monospace">EQ</text><polyline points="445,16002.0 2500,16002.0" fill="none" stroke="#edf8f1" stroke-width="2.5" /><polyline points="2500,16002.0 2530,16002.0" fill="none" stroke="#edf8f1" stroke-width="2.5" /><polyline points="2530,16002.0 2630.0,16002.0" fill="none" stroke="#edf8f1" stroke-width="2.5" /><polyline points="2730.0,16002.0 2830,16002.0" fill="none" stroke="#edf8f1" stroke-width="2.5" /><polyline points="2647.5,15977.0 2636.0,15985.0 2630.0,15996.0 2630.0,16008.0 2636.0,16019.0 2647.5,16027.0" fill="none" stroke="#69e69d" stroke-width="2.5" /><polyline points="2712.5,15977.0 2724.0,15985.0 2730.0,15996.0 2730.0,16008.0 2724.0,16019.0 2712.5,16027.0" fill="none" stroke="#69e69d" stroke-width="2.5" /><text x="2656.390625" y="16011.0" fill="#69e69d" font-size="24" font-family="Liberation Mono, monospace">MOV</text><text x="2670.796875" y="15961.0" fill="#edf8f1" font-size="24" font-family="Liberation Mono, monospace">0</text><text x="2577.15625" y="16060.0" fill="#edf8f1" font-size="24" font-family="Liberation Mono, monospace">Source.Binding</text><text x="2577.15625" y="16090.0" fill="#edf8f1" font-size="24" font-family="Liberation Mono, monospace">Valid</text><text x="2656.40625" y="16126.0" fill="#8da69b" font-size="18" font-family="Liberation Mono, monospace">MOVE</text><polyline points="2830,16002.0 2860,16002.0" fill="none" stroke="#edf8f1" stroke-width="2.5" /><polyline points="2500,16232.0 2530,16232.0" fill="none" stroke="#edf8f1" stroke-width="2.5" /><polyline points="2530,16232.0 2630.0,16232.0" fill="none" stroke="#edf8f1" stroke-width="2.5" /><polyline points="2730.0,16232.0 2830,16232.0" fill="none" stroke="#edf8f1" stroke-width="2.5" /><polyline points="2647.5,16207.0 2636.0,16215.0 2630.0,16226.0 2630.0,16238.0 2636.0,16249.0 2647.5,16257.0" fill="none" stroke="#69e69d" stroke-width="2.5" /><polyline points="2712.5,16207.0 2724.0,16215.0 2730.0,16226.0 2730.0,16238.0 2724.0,16249.0 2712.5,16257.0" fill="none" stroke="#69e69d" stroke-width="2.5" /><text x="2656.390625" y="16241.0" fill="#69e69d" font-size="24" font-family="Liberation Mono, monospace">MOV</text><text x="2670.796875" y="16191.0" fill="#edf8f1" font-size="24" font-family="Liberation Mono, monospace">0</text><text x="2555.546875" y="16290.0" fill="#edf8f1" font-size="24" font-family="Liberation Mono, monospace">Source.Qualifying</text><text x="2555.546875" y="16320.0" fill="#edf8f1" font-size="24" font-family="Liberation Mono, monospace">Valid</text><text x="2656.40625" y="16356.0" fill="#8da69b" font-size="18" font-family="Liberation Mono, monospace">MOVE</text><polyline points="2830,16232.0 2860,16232.0" fill="none" stroke="#edf8f1" stroke-width="2.5" /><polyline points="2500,16002.0 2500,16232.0" fill="none" stroke="#edf8f1" stroke-width="2.5" /><polyline points="2860,16002.0 2860,16232.0" fill="none" stroke="#edf8f1" stroke-width="2.5" /><polyline points="2860,16002.0 2900,16002.0" fill="none" stroke="#edf8f1" stroke-width="2.5" /><text x="130" y="16446.0" fill="#8da69b" font-size="24" font-family="Liberation Mono, monospace">ADDED · Identity and mapped signal links are available.</text><rect x="20" y="16565.0" width="52" height="34" fill="#0d241d" stroke="#8da69b" stroke-width="2" /><text x="29.8203125" y="16588.0" fill="#8da69b" font-size="17" font-family="Liberation Sans, Arial, sans-serif">027</text><polyline points="105,16582.0 145,16582.0" fill="none" stroke="#edf8f1" stroke-width="2.5" /><polyline points="145,16582.0 255.0,16582.0" fill="none" stroke="#edf8f1" stroke-width="2.5" /><polyline points="335.0,16582.0 445,16582.0" fill="none" stroke="#edf8f1" stroke-width="2.5" /><polyline points="255.0,16560.0 255.0,16604.0" fill="none" stroke="#edf8f1" stroke-width="2.5" /><polyline points="335.0,16560.0 335.0,16604.0" fill="none" stroke="#edf8f1" stroke-width="2.5" /><text x="285.796875" y="16591.0" fill="#edf8f1" font-size="24" font-family="Liberation Mono, monospace">=</text><text x="256.984375" y="16541.0" fill="#edf8f1" font-size="24" font-family="Liberation Mono, monospace">Phase</text><text x="285.796875" y="16640.0" fill="#edf8f1" font-size="24" font-family="Liberation Mono, monospace">0</text><text x="282.203125" y="16676.0" fill="#8da69b" font-size="18" font-family="Liberation Mono, monospace">EQ</text><polyline points="445,16582.0 555.0,16582.0" fill="none" stroke="#edf8f1" stroke-width="2.5" /><polyline points="635.0,16582.0 745,16582.0" fill="none" stroke="#edf8f1" stroke-width="2.5" /><polyline points="555.0,16560.0 555.0,16604.0" fill="none" stroke="#edf8f1" stroke-width="2.5" /><polyline points="635.0,16560.0 635.0,16604.0" fill="none" stroke="#edf8f1" stroke-width="2.5" /><text x="585.796875" y="16591.0" fill="#edf8f1" font-size="24" font-family="Liberation Mono, monospace">=</text><text x="513.765625" y="16511.0" fill="#edf8f1" font-size="24" font-family="Liberation Mono, monospace">Cfg.Mapping</text><text x="513.765625" y="16541.0" fill="#edf8f1" font-size="24" font-family="Liberation Mono, monospace">Approved</text><text x="585.796875" y="16640.0" fill="#edf8f1" font-size="24" font-family="Liberation Mono, monospace">1</text><text x="582.203125" y="16676.0" fill="#8da69b" font-size="18" font-family="Liberation Mono, monospace">EQ</text><polyline points="745,16582.0 855.0,16582.0" fill="none" stroke="#edf8f1" stroke-width="2.5" /><polyline points="935.0,16582.0 1045,16582.0" fill="none" stroke="#edf8f1" stroke-width="2.5" /><polyline points="855.0,16560.0 855.0,16604.0" fill="none" stroke="#edf8f1" stroke-width="2.5" /><polyline points="935.0,16560.0 935.0,16604.0" fill="none" stroke="#edf8f1" stroke-width="2.5" /><text x="885.796875" y="16591.0" fill="#edf8f1" font-size="24" font-family="Liberation Mono, monospace">&gt;</text><text x="777.75" y="16511.0" fill="#edf8f1" font-size="24" font-family="Liberation Mono, monospace">Source.Identity.</text><text x="777.75" y="16541.0" fill="#edf8f1" font-size="24" font-family="Liberation Mono, monospace">SN.LEN</text><text x="885.796875" y="16640.0" fill="#edf8f1" font-size="24" font-family="Liberation Mono, monospace">0</text><text x="882.203125" y="16676.0" fill="#8da69b" font-size="18" font-family="Liberation Mono, monospace">GT</text><polyline points="1045,16582.0 2560,16582.0" fill="none" stroke="#edf8f1" stroke-width="2.5" /><polyline points="2560,16582.0 2660.0,16582.0" fill="none" stroke="#edf8f1" stroke-width="2.5" /><polyline points="2760.0,16582.0 2860,16582.0" fill="none" stroke="#edf8f1" stroke-width="2.5" /><polyline points="2677.5,16557.0 2666.0,16565.0 2660.0,16576.0 2660.0,16588.0 2666.0,16599.0 2677.5,16607.0" fill="none" stroke="#69e69d" stroke-width="2.5" /><polyline points="2742.5,16557.0 2754.0,16565.0 2760.0,16576.0 2760.0,16588.0 2754.0,16599.0 2742.5,16607.0" fill="none" stroke="#69e69d" stroke-width="2.5" /><text x="2686.390625" y="16591.0" fill="#69e69d" font-size="24" font-family="Liberation Mono, monospace">MOV</text><text x="2700.796875" y="16541.0" fill="#edf8f1" font-size="24" font-family="Liberation Mono, monospace">1</text><text x="2607.15625" y="16640.0" fill="#edf8f1" font-size="24" font-family="Liberation Mono, monospace">Source.Binding</text><text x="2607.15625" y="16670.0" fill="#edf8f1" font-size="24" font-family="Liberation Mono, monospace">Valid</text><text x="2686.40625" y="16706.0" fill="#8da69b" font-size="18" font-family="Liberation Mono, monospace">MOVE</text><polyline points="2860,16582.0 2900,16582.0" fill="none" stroke="#edf8f1" stroke-width="2.5" /><text x="130" y="16796.0" fill="#8da69b" font-size="24" font-family="Liberation Mono, monospace">ADDED · A nonnegative retained soak counter and positive original maximum are required.</text><rect x="0" y="0" width="3000" height="64884.0" fill="none" stroke="#8da69b" stroke-width="2" /><rect x="7" y="13111.0" width="5" height="1268.0" fill="#8da69b" stroke="#8da69b" stroke-width="2" /><rect x="7" y="14385.0" width="5" height="1129" fill="#8da69b" stroke="#8da69b" stroke-width="2" /><text x="7.5625" y="14587.0" fill="#8da69b" font-size="16" font-family="Liberation Mono, monospace">MAP</text><text x="7.5625" y="14607.0" fill="#8da69b" font-size="16" font-family="Liberation Mono, monospace">IDENTITY</text><rect x="7" y="15520.0" width="5" height="349" fill="#8da69b" stroke="#8da69b" stroke-width="2" /><text x="7.5625" y="15722.0" fill="#8da69b" font-size="16" font-family="Liberation Mono, monospace">MAP</text><text x="7.5625" y="15742.0" fill="#8da69b" font-size="16" font-family="Liberation Mono, monospace">IDENTITY</text><rect x="7" y="15875.0" width="5" height="544" fill="#8da69b" stroke="#8da69b" stroke-width="2" /><text x="26.78125" y="16042.0" fill="#8da69b" font-size="16" font-family="Liberation Mono, monospace">MAP</text><text x="26.78125" y="16062.0" fill="#8da69b" font-size="16" font-family="Liberation Mono, monospace">INIT</text><rect x="7" y="16425.0" width="5" height="344" fill="#8da69b" stroke="#8da69b" stroke-width="2" /><text x="12.3671875" y="16622.0" fill="#8da69b" font-size="16" font-family="Liberation Mono, monospace">MAP</text><text x="12.3671875" y="16642.0" fill="#8da69b" font-size="16" font-family="Liberation Mono, monospace">QUALITY</text><rect x="7" y="16775.0" width="5" height="344" fill="#8da69b" stroke="#8da69b" stroke-width="2" /></svg>