<?xml version='1.0' encoding='utf-8'?>
<svg xmlns="http://www.w3.org/2000/svg" style="background-color:#ffffff" width="3000" height="2170.0" viewBox="0 2326 3000 2170" role="img"><title>31 · FDC / WH_Channel/Logic</title><rect x="0" y="0" width="3000" height="64884.0" fill="#ffffff" stroke="#ffffff" stroke-width="2" /><polyline points="105,265 105,64809.0" fill="none" stroke="#193b2d" stroke-width="2.5" /><polyline points="2900,265 2900,64809.0" fill="none" stroke="#193b2d" stroke-width="2.5" /><text x="130" y="2350.0" fill="#52685c" font-size="24" font-family="Liberation Mono, monospace">ADDED · Invalid boot or changed installation latches capture fault 10.</text><rect x="20" y="2439.0" width="52" height="34" fill="#eaf1ec" stroke="#b42332" stroke-width="2" /><text x="29.8203125" y="2462.0" fill="#b42332" font-size="17" font-family="Liberation Sans, Arial, sans-serif">002</text><polyline points="105,2456.0 145,2456.0" fill="none" stroke="#193b2d" stroke-width="2.5" /><polyline points="145,2456.0 255.0,2456.0" fill="none" stroke="#193b2d" stroke-width="2.5" /><polyline points="335.0,2456.0 445,2456.0" fill="none" stroke="#193b2d" stroke-width="2.5" /><polyline points="255.0,2434.0 255.0,2478.0" fill="none" stroke="#193b2d" stroke-width="2.5" /><polyline points="335.0,2434.0 335.0,2478.0" fill="none" stroke="#193b2d" stroke-width="2.5" /><text x="285.796875" y="2465.0" fill="#193b2d" font-size="24" font-family="Liberation Mono, monospace">=</text><text x="256.984375" y="2415.0" fill="#193b2d" font-size="24" font-family="Liberation Mono, monospace">Phase</text><text x="285.796875" y="2514.0" fill="#193b2d" font-size="24" font-family="Liberation Mono, monospace">0</text><text x="282.203125" y="2550.0" fill="#52685c" font-size="18" font-family="Liberation Mono, monospace">EQ</text><polyline points="445,2456.0 475,2456.0" fill="none" stroke="#193b2d" stroke-width="2.5" /><polyline points="475,2456.0 585.0,2456.0" fill="none" stroke="#193b2d" stroke-width="2.5" /><polyline points="665.0,2456.0 775,2456.0" fill="none" stroke="#193b2d" stroke-width="2.5" /><polyline points="585.0,2434.0 585.0,2478.0" fill="none" stroke="#193b2d" stroke-width="2.5" /><polyline points="665.0,2434.0 665.0,2478.0" fill="none" stroke="#193b2d" stroke-width="2.5" /><text x="615.796875" y="2465.0" fill="#193b2d" font-size="24" font-family="Liberation Mono, monospace">≤</text><text x="565.375" y="2415.0" fill="#193b2d" font-size="24" font-family="Liberation Mono, monospace">Cfg.Boot</text><text x="615.796875" y="2514.0" fill="#193b2d" font-size="24" font-family="Liberation Mono, monospace">0</text><text x="612.203125" y="2550.0" fill="#52685c" font-size="18" font-family="Liberation Mono, monospace">LE</text><polyline points="775,2456.0 805,2456.0" fill="none" stroke="#193b2d" stroke-width="2.5" /><polyline points="445,2656.0 475,2656.0" fill="none" stroke="#193b2d" stroke-width="2.5" /><polyline points="475,2656.0 585.0,2656.0" fill="none" stroke="#193b2d" stroke-width="2.5" /><polyline points="665.0,2656.0 775,2656.0" fill="none" stroke="#193b2d" stroke-width="2.5" /><polyline points="585.0,2634.0 585.0,2678.0" fill="none" stroke="#193b2d" stroke-width="2.5" /><polyline points="665.0,2634.0 665.0,2678.0" fill="none" stroke="#193b2d" stroke-width="2.5" /><text x="615.796875" y="2665.0" fill="#193b2d" font-size="24" font-family="Liberation Mono, monospace">≥</text><text x="565.375" y="2615.0" fill="#193b2d" font-size="24" font-family="Liberation Mono, monospace">Cfg.Boot</text><text x="579.78125" y="2714.0" fill="#7043a5" font-size="24" font-family="Liberation Mono, monospace">MaxInt</text><text x="612.203125" y="2750.0" fill="#52685c" font-size="18" font-family="Liberation Mono, monospace">GE</text><polyline points="775,2656.0 805,2656.0" fill="none" stroke="#193b2d" stroke-width="2.5" /><polyline points="445,2886.0 475,2886.0" fill="none" stroke="#193b2d" stroke-width="2.5" /><polyline points="475,2886.0 585.0,2886.0" fill="none" stroke="#193b2d" stroke-width="2.5" /><polyline points="665.0,2886.0 775,2886.0" fill="none" stroke="#193b2d" stroke-width="2.5" /><polyline points="585.0,2864.0 585.0,2908.0" fill="none" stroke="#193b2d" stroke-width="2.5" /><polyline points="665.0,2864.0 665.0,2908.0" fill="none" stroke="#193b2d" stroke-width="2.5" /><text x="615.796875" y="2895.0" fill="#193b2d" font-size="24" font-family="Liberation Mono, monospace">≠</text><text x="514.953125" y="2815.0" fill="#193b2d" font-size="24" font-family="Liberation Mono, monospace">Seen</text><text x="514.953125" y="2845.0" fill="#193b2d" font-size="24" font-family="Liberation Mono, monospace">Installation[0]</text><text x="514.953125" y="2944.0" fill="#193b2d" font-size="24" font-family="Liberation Mono, monospace">Cfg.</text><text x="514.953125" y="2974.0" fill="#193b2d" font-size="24" font-family="Liberation Mono, monospace">Installation[0]</text><text x="612.203125" y="3010.0" fill="#52685c" font-size="18" font-family="Liberation Mono, monospace">NE</text><polyline points="775,2886.0 805,2886.0" fill="none" stroke="#193b2d" stroke-width="2.5" /><polyline points="445,3146.0 475,3146.0" fill="none" stroke="#193b2d" stroke-width="2.5" /><polyline points="475,3146.0 585.0,3146.0" fill="none" stroke="#193b2d" stroke-width="2.5" /><polyline points="665.0,3146.0 775,3146.0" fill="none" stroke="#193b2d" stroke-width="2.5" /><polyline points="585.0,3124.0 585.0,3168.0" fill="none" stroke="#193b2d" stroke-width="2.5" /><polyline points="665.0,3124.0 665.0,3168.0" fill="none" stroke="#193b2d" stroke-width="2.5" /><text x="615.796875" y="3155.0" fill="#193b2d" font-size="24" font-family="Liberation Mono, monospace">≠</text><text x="514.953125" y="3075.0" fill="#193b2d" font-size="24" font-family="Liberation Mono, monospace">Seen</text><text x="514.953125" y="3105.0" fill="#193b2d" font-size="24" font-family="Liberation Mono, monospace">Installation[1]</text><text x="514.953125" y="3204.0" fill="#193b2d" font-size="24" font-family="Liberation Mono, monospace">Cfg.</text><text x="514.953125" y="3234.0" fill="#193b2d" font-size="24" font-family="Liberation Mono, monospace">Installation[1]</text><text x="612.203125" y="3270.0" fill="#52685c" font-size="18" font-family="Liberation Mono, monospace">NE</text><polyline points="775,3146.0 805,3146.0" fill="none" stroke="#193b2d" stroke-width="2.5" /><polyline points="445,3406.0 475,3406.0" fill="none" stroke="#193b2d" stroke-width="2.5" /><polyline points="475,3406.0 585.0,3406.0" fill="none" stroke="#193b2d" stroke-width="2.5" /><polyline points="665.0,3406.0 775,3406.0" fill="none" stroke="#193b2d" stroke-width="2.5" /><polyline points="585.0,3384.0 585.0,3428.0" fill="none" stroke="#193b2d" stroke-width="2.5" /><polyline points="665.0,3384.0 665.0,3428.0" fill="none" stroke="#193b2d" stroke-width="2.5" /><text x="615.796875" y="3415.0" fill="#193b2d" font-size="24" font-family="Liberation Mono, monospace">≠</text><text x="514.953125" y="3335.0" fill="#193b2d" font-size="24" font-family="Liberation Mono, monospace">Seen</text><text x="514.953125" y="3365.0" fill="#193b2d" font-size="24" font-family="Liberation Mono, monospace">Installation[2]</text><text x="514.953125" y="3464.0" fill="#193b2d" font-size="24" font-family="Liberation Mono, monospace">Cfg.</text><text x="514.953125" y="3494.0" fill="#193b2d" font-size="24" font-family="Liberation Mono, monospace">Installation[2]</text><text x="612.203125" y="3530.0" fill="#52685c" font-size="18" font-family="Liberation Mono, monospace">NE</text><polyline points="775,3406.0 805,3406.0" fill="none" stroke="#193b2d" stroke-width="2.5" /><polyline points="445,3666.0 475,3666.0" fill="none" stroke="#193b2d" stroke-width="2.5" /><polyline points="475,3666.0 585.0,3666.0" fill="none" stroke="#193b2d" stroke-width="2.5" /><polyline points="665.0,3666.0 775,3666.0" fill="none" stroke="#193b2d" stroke-width="2.5" /><polyline points="585.0,3644.0 585.0,3688.0" fill="none" stroke="#193b2d" stroke-width="2.5" /><polyline points="665.0,3644.0 665.0,3688.0" fill="none" stroke="#193b2d" stroke-width="2.5" /><text x="615.796875" y="3675.0" fill="#193b2d" font-size="24" font-family="Liberation Mono, monospace">≠</text><text x="514.953125" y="3595.0" fill="#193b2d" font-size="24" font-family="Liberation Mono, monospace">Seen</text><text x="514.953125" y="3625.0" fill="#193b2d" font-size="24" font-family="Liberation Mono, monospace">Installation[3]</text><text x="514.953125" y="3724.0" fill="#193b2d" font-size="24" font-family="Liberation Mono, monospace">Cfg.</text><text x="514.953125" y="3754.0" fill="#193b2d" font-size="24" font-family="Liberation Mono, monospace">Installation[3]</text><text x="612.203125" y="3790.0" fill="#52685c" font-size="18" font-family="Liberation Mono, monospace">NE</text><polyline points="775,3666.0 805,3666.0" fill="none" stroke="#193b2d" stroke-width="2.5" /><polyline points="445,2456.0 445,3666.0" fill="none" stroke="#193b2d" stroke-width="2.5" /><polyline points="805,2456.0 805,3666.0" fill="none" stroke="#193b2d" stroke-width="2.5" /><polyline points="805,2456.0 2560,2456.0" fill="none" stroke="#193b2d" stroke-width="2.5" /><polyline points="2560,2456.0 2660.0,2456.0" fill="none" stroke="#193b2d" stroke-width="2.5" /><polyline points="2760.0,2456.0 2860,2456.0" fill="none" stroke="#193b2d" stroke-width="2.5" /><polyline points="2677.5,2431.0 2666.0,2439.0 2660.0,2450.0 2660.0,2462.0 2666.0,2473.0 2677.5,2481.0" fill="none" stroke="#236940" stroke-width="2.5" /><polyline points="2742.5,2431.0 2754.0,2439.0 2760.0,2450.0 2760.0,2462.0 2754.0,2473.0 2742.5,2481.0" fill="none" stroke="#236940" stroke-width="2.5" /><text x="2686.390625" y="2465.0" fill="#236940" font-size="24" font-family="Liberation Mono, monospace">MOV</text><text x="2693.59375" y="2415.0" fill="#b42332" font-size="24" font-family="Liberation Mono, monospace">10</text><text x="2628.765625" y="2514.0" fill="#b42332" font-size="24" font-family="Liberation Mono, monospace">State.Fault</text><text x="2686.40625" y="2550.0" fill="#52685c" font-size="18" font-family="Liberation Mono, monospace">MOVE</text><polyline points="2860,2456.0 2900,2456.0" fill="none" stroke="#193b2d" stroke-width="2.5" /><text x="130" y="3880.0" fill="#52685c" font-size="24" font-family="Liberation Mono, monospace">ADDED · 0 -&gt; 10: arm the initialized observer.</text><rect x="20" y="3969.0" width="52" height="34" fill="#eaf1ec" stroke="#806000" stroke-width="2" /><text x="29.8203125" y="3992.0" fill="#806000" font-size="17" font-family="Liberation Sans, Arial, sans-serif">003</text><polyline points="105,3986.0 145,3986.0" fill="none" stroke="#193b2d" stroke-width="2.5" /><polyline points="145,3986.0 255.0,3986.0" fill="none" stroke="#193b2d" stroke-width="2.5" /><polyline points="335.0,3986.0 445,3986.0" fill="none" stroke="#193b2d" stroke-width="2.5" /><polyline points="255.0,3964.0 255.0,4008.0" fill="none" stroke="#193b2d" stroke-width="2.5" /><polyline points="335.0,3964.0 335.0,4008.0" fill="none" stroke="#193b2d" stroke-width="2.5" /><text x="285.796875" y="3995.0" fill="#193b2d" font-size="24" font-family="Liberation Mono, monospace">=</text><text x="256.984375" y="3945.0" fill="#193b2d" font-size="24" font-family="Liberation Mono, monospace">Phase</text><text x="285.796875" y="4044.0" fill="#193b2d" font-size="24" font-family="Liberation Mono, monospace">0</text><text x="282.203125" y="4080.0" fill="#52685c" font-size="18" font-family="Liberation Mono, monospace">EQ</text><polyline points="445,3986.0 555.0,3986.0" fill="none" stroke="#193b2d" stroke-width="2.5" /><polyline points="635.0,3986.0 745,3986.0" fill="none" stroke="#193b2d" stroke-width="2.5" /><polyline points="555.0,3964.0 555.0,4008.0" fill="none" stroke="#193b2d" stroke-width="2.5" /><polyline points="635.0,3964.0 635.0,4008.0" fill="none" stroke="#193b2d" stroke-width="2.5" /><text x="585.796875" y="3995.0" fill="#193b2d" font-size="24" font-family="Liberation Mono, monospace">=</text><text x="463.34375" y="3945.0" fill="#806000" font-size="24" font-family="Liberation Mono, monospace">State.CaptureState</text><text x="585.796875" y="4044.0" fill="#806000" font-size="24" font-family="Liberation Mono, monospace">0</text><text x="582.203125" y="4080.0" fill="#52685c" font-size="18" font-family="Liberation Mono, monospace">EQ</text><polyline points="745,3986.0 2560,3986.0" fill="none" stroke="#193b2d" stroke-width="2.5" /><polyline points="2560,3986.0 2660.0,3986.0" fill="none" stroke="#193b2d" stroke-width="2.5" /><polyline points="2760.0,3986.0 2860,3986.0" fill="none" stroke="#193b2d" stroke-width="2.5" /><polyline points="2677.5,3961.0 2666.0,3969.0 2660.0,3980.0 2660.0,3992.0 2666.0,4003.0 2677.5,4011.0" fill="none" stroke="#236940" stroke-width="2.5" /><polyline points="2742.5,3961.0 2754.0,3969.0 2760.0,3980.0 2760.0,3992.0 2754.0,4003.0 2742.5,4011.0" fill="none" stroke="#236940" stroke-width="2.5" /><text x="2686.390625" y="3995.0" fill="#236940" font-size="24" font-family="Liberation Mono, monospace">MOV</text><text x="2693.59375" y="3945.0" fill="#806000" font-size="24" font-family="Liberation Mono, monospace">10</text><text x="2578.34375" y="4044.0" fill="#806000" font-size="24" font-family="Liberation Mono, monospace">State.CaptureState</text><text x="2686.40625" y="4080.0" fill="#52685c" font-size="18" font-family="Liberation Mono, monospace">MOVE</text><polyline points="2860,3986.0 2900,3986.0" fill="none" stroke="#193b2d" stroke-width="2.5" /><text x="130" y="4170.0" fill="#52685c" font-size="24" font-family="Liberation Mono, monospace">ADDED · Compare all four installation words; this ordinary coil is recalculated each AOI invocation.</text><rect x="20" y="4289.0" width="52" height="34" fill="#eaf1ec" stroke="#806000" stroke-width="2" /><text x="29.8203125" y="4312.0" fill="#806000" font-size="17" font-family="Liberation Sans, Arial, sans-serif">004</text><polyline points="105,4306.0 145,4306.0" fill="none" stroke="#193b2d" stroke-width="2.5" /><polyline points="145,4306.0 255.0,4306.0" fill="none" stroke="#193b2d" stroke-width="2.5" /><polyline points="335.0,4306.0 445,4306.0" fill="none" stroke="#193b2d" stroke-width="2.5" /><polyline points="255.0,4284.0 255.0,4328.0" fill="none" stroke="#193b2d" stroke-width="2.5" /><polyline points="335.0,4284.0 335.0,4328.0" fill="none" stroke="#193b2d" stroke-width="2.5" /><text x="285.796875" y="4315.0" fill="#193b2d" font-size="24" font-family="Liberation Mono, monospace">=</text><text x="184.953125" y="4235.0" fill="#236940" font-size="24" font-family="Liberation Mono, monospace">Receipt.</text><text x="184.953125" y="4265.0" fill="#236940" font-size="24" font-family="Liberation Mono, monospace">Installation[0]</text><text x="184.953125" y="4364.0" fill="#236940" font-size="24" font-family="Liberation Mono, monospace">Event.</text><text x="184.953125" y="4394.0" fill="#236940" font-size="24" font-family="Liberation Mono, monospace">Installation[0]</text><text x="282.203125" y="4430.0" fill="#52685c" font-size="18" font-family="Liberation Mono, monospace">EQ</text><polyline points="445,4306.0 555.0,4306.0" fill="none" stroke="#193b2d" stroke-width="2.5" /><polyline points="635.0,4306.0 745,4306.0" fill="none" stroke="#193b2d" stroke-width="2.5" /><polyline points="555.0,4284.0 555.0,4328.0" fill="none" stroke="#193b2d" stroke-width="2.5" /><polyline points="635.0,4284.0 635.0,4328.0" fill="none" stroke="#193b2d" stroke-width="2.5" /><text x="585.796875" y="4315.0" fill="#193b2d" font-size="24" font-family="Liberation Mono, monospace">=</text><text x="484.953125" y="4235.0" fill="#236940" font-size="24" font-family="Liberation Mono, monospace">Receipt.</text><text x="484.953125" y="4265.0" fill="#236940" font-size="24" font-family="Liberation Mono, monospace">Installation[1]</text><text x="484.953125" y="4364.0" fill="#236940" font-size="24" font-family="Liberation Mono, monospace">Event.</text><text x="484.953125" y="4394.0" fill="#236940" font-size="24" font-family="Liberation Mono, monospace">Installation[1]</text><text x="582.203125" y="4430.0" fill="#52685c" font-size="18" font-family="Liberation Mono, monospace">EQ</text><polyline points="745,4306.0 855.0,4306.0" fill="none" stroke="#193b2d" stroke-width="2.5" /><polyline points="935.0,4306.0 1045,4306.0" fill="none" stroke="#193b2d" stroke-width="2.5" /><polyline points="855.0,4284.0 855.0,4328.0" fill="none" stroke="#193b2d" stroke-width="2.5" /><polyline points="935.0,4284.0 935.0,4328.0" fill="none" stroke="#193b2d" stroke-width="2.5" /><text x="885.796875" y="4315.0" fill="#193b2d" font-size="24" font-family="Liberation Mono, monospace">=</text><text x="784.953125" y="4235.0" fill="#236940" font-size="24" font-family="Liberation Mono, monospace">Receipt.</text><text x="784.953125" y="4265.0" fill="#236940" font-size="24" font-family="Liberation Mono, monospace">Installation[2]</text><text x="784.953125" y="4364.0" fill="#236940" font-size="24" font-family="Liberation Mono, monospace">Event.</text><text x="784.953125" y="4394.0" fill="#236940" font-size="24" font-family="Liberation Mono, monospace">Installation[2]</text><text x="882.203125" y="4430.0" fill="#52685c" font-size="18" font-family="Liberation Mono, monospace">EQ</text><polyline points="1045,4306.0 1155.0,4306.0" fill="none" stroke="#193b2d" stroke-width="2.5" /><polyline points="1235.0,4306.0 1345,4306.0" fill="none" stroke="#193b2d" stroke-width="2.5" /><polyline points="1155.0,4284.0 1155.0,4328.0" fill="none" stroke="#193b2d" stroke-width="2.5" /><polyline points="1235.0,4284.0 1235.0,4328.0" fill="none" stroke="#193b2d" stroke-width="2.5" /><text x="1185.796875" y="4315.0" fill="#193b2d" font-size="24" font-family="Liberation Mono, monospace">=</text><text x="1084.953125" y="4235.0" fill="#236940" font-size="24" font-family="Liberation Mono, monospace">Receipt.</text><text x="1084.953125" y="4265.0" fill="#236940" font-size="24" font-family="Liberation Mono, monospace">Installation[3]</text><text x="1084.953125" y="4364.0" fill="#236940" font-size="24" font-family="Liberation Mono, monospace">Event.</text><text x="1084.953125" y="4394.0" fill="#236940" font-size="24" font-family="Liberation Mono, monospace">Installation[3]</text><text x="1182.203125" y="4430.0" fill="#52685c" font-size="18" font-family="Liberation Mono, monospace">EQ</text><polyline points="1345,4306.0 2560,4306.0" fill="none" stroke="#193b2d" stroke-width="2.5" /><polyline points="2560,4306.0 2660.0,4306.0" fill="none" stroke="#193b2d" stroke-width="2.5" /><polyline points="2760.0,4306.0 2860,4306.0" fill="none" stroke="#193b2d" stroke-width="2.5" /><polyline points="2677.5,4281.0 2666.0,4289.0 2660.0,4300.0 2660.0,4312.0 2666.0,4323.0 2677.5,4331.0" fill="none" stroke="#236940" stroke-width="2.5" /><polyline points="2742.5,4281.0 2754.0,4289.0 2760.0,4300.0 2760.0,4312.0 2754.0,4323.0 2742.5,4331.0" fill="none" stroke="#236940" stroke-width="2.5" /><text x="2607.15625" y="4265.0" fill="#806000" font-size="24" font-family="Liberation Mono, monospace">ReceiptMatches</text><text x="2691.8046875" y="4366.0" fill="#52685c" font-size="18" font-family="Liberation Mono, monospace">OTE</text><polyline points="2860,4306.0 2900,4306.0" fill="none" stroke="#193b2d" stroke-width="2.5" /><text x="130" y="4520.0" fill="#52685c" font-size="24" font-family="Liberation Mono, monospace">ADDED · 30 -&gt; 10: accept only the matching durable event receipt.</text><rect x="0" y="0" width="3000" height="64884.0" fill="none" stroke="#52685c" stroke-width="2" /><rect x="7" y="588" width="5" height="1735.0" fill="#806000" stroke="#806000" stroke-width="2" /><rect x="7" y="2329.0" width="5" height="1524" fill="#b42332" stroke="#b42332" stroke-width="2" /><text x="21.9765625" y="2496.0" fill="#b42332" font-size="16" font-family="Liberation Mono, monospace">FAULT</text><text x="21.9765625" y="2516.0" fill="#b42332" font-size="16" font-family="Liberation Mono, monospace">BOOT</text><rect x="7" y="3859.0" width="5" height="284" fill="#806000" stroke="#806000" stroke-width="2" /><text x="21.9765625" y="4026.0" fill="#806000" font-size="16" font-family="Liberation Mono, monospace">STATE</text><text x="21.9765625" y="4046.0" fill="#806000" font-size="16" font-family="Liberation Mono, monospace">ARM</text><rect x="7" y="4149.0" width="5" height="344" fill="#806000" stroke="#806000" stroke-width="2" /><text x="12.3671875" y="4346.0" fill="#806000" font-size="16" font-family="Liberation Mono, monospace">STATE</text><text x="12.3671875" y="4366.0" fill="#806000" font-size="16" font-family="Liberation Mono, monospace">RECEIPT</text><rect x="7" y="4499.0" width="5" height="289" fill="#806000" stroke="#806000" stroke-width="2" /></svg>